<?xml version="1.0" encoding="utf-8"?>
<svg xmlns="http://www.w3.org/2000/svg">
<symbol id="m-perm_contact_calendar" viewBox="0 0 24 24"><path d="M19 3h-1V2c0-.55-.45-1-1-1s-1 .45-1 1v1H8V2c0-.55-.45-1-1-1s-1 .45-1 1v1H5a2 2 0 0 0-2 2v14c0 1.1.9 2 2 2h14c1.1 0 2-.9 2-2V5c0-1.1-.9-2-2-2zm-7 3c1.66 0 3 1.34 3 3s-1.34 3-3 3-3-1.34-3-3 1.34-3 3-3zm6 12H6v-1c0-2 4-3.1 6-3.1s6 1.1 6 3.1v1z"></path>
</symbol>
<symbol id="m-badge" viewBox="0 0 24 24"><path d="M20 7h-5V4c0-1.1-.9-2-2-2h-2c-1.1 0-2 .9-2 2v3H4c-1.1 0-2 .9-2 2v11c0 1.1.9 2 2 2h16c1.1 0 2-.9 2-2V9c0-1.1-.9-2-2-2zM9 12c.83 0 1.5.67 1.5 1.5S9.83 15 9 15s-1.5-.67-1.5-1.5S8.17 12 9 12zm3 6H6v-.43c0-.6.36-1.15.92-1.39.64-.28 1.34-.43 2.08-.43s1.44.15 2.08.43c.55.24.92.78.92 1.39V18zm1-9h-2V4h2v5zm4.25 7.5h-2.5c-.41 0-.75-.34-.75-.75s.34-.75.75-.75h2.5c.41 0 .75.34.75.75s-.34.75-.75.75zm0-3h-2.5c-.41 0-.75-.34-.75-.75s.34-.75.75-.75h2.5c.41 0 .75.34.75.75s-.34.75-.75.75z"></path>
</symbol>
<symbol id="m-contrast" viewBox="0 0 24 24"><path d="M12 22c5.52 0 10-4.48 10-10S17.52 2 12 2 2 6.48 2 12s4.48 10 10 10zm1-17.93c3.94.49 7 3.85 7 7.93s-3.05 7.44-7 7.93V4.07z"></path>
</symbol>
<symbol id="m-format_align_left" viewBox="0 0 24 24"><path d="M14 15H4c-.55 0-1 .45-1 1s.45 1 1 1h10c.55 0 1-.45 1-1s-.45-1-1-1zm0-8H4c-.55 0-1 .45-1 1s.45 1 1 1h10c.55 0 1-.45 1-1s-.45-1-1-1zM4 13h16c.55 0 1-.45 1-1s-.45-1-1-1H4c-.55 0-1 .45-1 1s.45 1 1 1zm0 8h16c.55 0 1-.45 1-1s-.45-1-1-1H4c-.55 0-1 .45-1 1s.45 1 1 1zM3 4c0 .55.45 1 1 1h16c.55 0 1-.45 1-1s-.45-1-1-1H4c-.55 0-1 .45-1 1z"></path>
</symbol>
<symbol id="m-medical_services" viewBox="0 0 24 24"><path d="M20 6h-4V4c0-1.1-.9-2-2-2h-4c-1.1 0-2 .9-2 2v2H4c-1.1 0-2 .9-2 2v12c0 1.1.9 2 2 2h16c1.1 0 2-.9 2-2V8c0-1.1-.9-2-2-2zM10 4h4v2h-4V4zm5 11h-2v2c0 .55-.45 1-1 1s-1-.45-1-1v-2H9c-.55 0-1-.45-1-1s.45-1 1-1h2v-2c0-.55.45-1 1-1s1 .45 1 1v2h2c.55 0 1 .45 1 1s-.45 1-1 1z"></path>
</symbol>
<symbol id="m-anchor" viewBox="0 0 24 24"><path d="M13 9V7.82C14.16 7.4 15 6.3 15 5c0-1.65-1.35-3-3-3S9 3.35 9 5c0 1.3.84 2.4 2 2.82V9H9c-.55 0-1 .45-1 1s.45 1 1 1h2v8.92c-2.22-.33-4.59-1.68-5.55-3.37l1.14-1.14c.22-.22.19-.57-.05-.75L3.8 12.6a.5.5 0 0 0-.8.4v2c0 3.88 4.92 7 9 7s9-3.12 9-7v-2a.5.5 0 0 0-.8-.4l-2.74 2.05c-.24.18-.27.54-.05.75l1.14 1.14c-.96 1.69-3.33 3.04-5.55 3.37V11h2c.55 0 1-.45 1-1s-.45-1-1-1h-2zm-1-5c.55 0 1 .45 1 1s-.45 1-1 1-1-.45-1-1 .45-1 1-1z"></path>
</symbol>
<symbol id="m-keyboard_double_arrow_down" viewBox="0 0 24 24"><path d="M17.29 5.71a.996.996 0 0 0-1.41 0L12 9.58 8.11 5.7A.996.996 0 1 0 6.7 7.11l4.59 4.59c.39.39 1.02.39 1.41 0l4.59-4.59a.984.984 0 0 0 0-1.4z"></path><path d="M17.29 12.3a.996.996 0 0 0-1.41 0L12 16.17l-3.88-3.88a.996.996 0 1 0-1.41 1.41l4.59 4.59c.39.39 1.02.39 1.41 0l4.59-4.59a.993.993 0 0 0-.01-1.4z"></path>
</symbol>
<symbol id="m-keyboard_double_arrow_left" viewBox="0 0 24 24"><path d="M18.29 17.29a.996.996 0 0 0 0-1.41L14.42 12l3.88-3.88a.996.996 0 1 0-1.41-1.41L12.3 11.3a.996.996 0 0 0 0 1.41l4.59 4.59c.38.38 1.01.38 1.4-.01z"></path><path d="M11.7 17.29a.996.996 0 0 0 0-1.41L7.83 12l3.88-3.88a.996.996 0 1 0-1.41-1.41L5.71 11.3a.996.996 0 0 0 0 1.41l4.59 4.59c.38.38 1.01.38 1.4-.01z"></path>
</symbol>
<symbol id="m-keyboard_double_arrow_right" viewBox="0 0 24 24"><path d="M5.7 6.71a.996.996 0 0 0 0 1.41L9.58 12 5.7 15.88a.996.996 0 1 0 1.41 1.41l4.59-4.59a.996.996 0 0 0 0-1.41L7.12 6.71c-.39-.39-1.03-.39-1.42 0z"></path><path d="M12.29 6.71a.996.996 0 0 0 0 1.41L16.17 12l-3.88 3.88a.996.996 0 1 0 1.41 1.41l4.59-4.59a.996.996 0 0 0 0-1.41L13.7 6.7c-.38-.38-1.02-.38-1.41.01z"></path>
</symbol>
<symbol id="m-keyboard_double_arrow_up" viewBox="0 0 24 24"><path d="M6.7 18.29c.39.39 1.02.39 1.41 0L12 14.42l3.88 3.88a.996.996 0 1 0 1.41-1.41L12.7 12.3a.996.996 0 0 0-1.41 0L6.7 16.88a.996.996 0 0 0 0 1.41z"></path><path d="M6.7 11.7c.39.39 1.02.39 1.41 0L12 7.83l3.88 3.88a.996.996 0 1 0 1.41-1.41L12.7 5.71a.996.996 0 0 0-1.41 0L6.7 10.29a.996.996 0 0 0 0 1.41z"></path>
</symbol>
<symbol id="m-keyboard_arrow_down" viewBox="0 0 24 24"><path d="M8.12 9.29 12 13.17l3.88-3.88a.996.996 0 1 1 1.41 1.41l-4.59 4.59a.996.996 0 0 1-1.41 0L6.7 10.7a.996.996 0 0 1 0-1.41c.39-.38 1.03-.39 1.42 0z"></path>
</symbol>
<symbol id="m-keyboard_arrow_left" viewBox="0 0 24 24"><path d="M14.71 15.88 10.83 12l3.88-3.88a.996.996 0 1 0-1.41-1.41L8.71 11.3a.996.996 0 0 0 0 1.41l4.59 4.59c.39.39 1.02.39 1.41 0 .38-.39.39-1.03 0-1.42z"></path>
</symbol>
<symbol id="m-keyboard_arrow_right" viewBox="0 0 24 24"><path d="M9.29 15.88 13.17 12 9.29 8.12a.996.996 0 1 1 1.41-1.41l4.59 4.59c.39.39.39 1.02 0 1.41L10.7 17.3a.996.996 0 0 1-1.41 0c-.38-.39-.39-1.03 0-1.42z"></path>
</symbol>
<symbol id="m-keyboard_arrow_up" viewBox="0 0 24 24"><path d="M8.12 14.71 12 10.83l3.88 3.88a.996.996 0 1 0 1.41-1.41L12.7 8.71a.996.996 0 0 0-1.41 0L6.7 13.3a.996.996 0 0 0 0 1.41c.39.38 1.03.39 1.42 0z"></path>
</symbol>
<symbol id="m-inventory_2" viewBox="0 0 24 24"><path d="M20 2H4c-1 0-2 .9-2 2v3.01c0 .72.43 1.34 1 1.69V20c0 1.1 1.1 2 2 2h14c.9 0 2-.9 2-2V8.7c.57-.35 1-.97 1-1.69V4c0-1.1-1-2-2-2zm-6 12h-4c-.55 0-1-.45-1-1s.45-1 1-1h4c.55 0 1 .45 1 1s-.45 1-1 1zm6-7H4V4h16v3z"></path>
</symbol>
<symbol id="m-arrow_downward" viewBox="0 0 24 24"><path d="M11 5v11.17l-4.88-4.88c-.39-.39-1.03-.39-1.42 0a.996.996 0 0 0 0 1.41l6.59 6.59c.39.39 1.02.39 1.41 0l6.59-6.59a.996.996 0 1 0-1.41-1.41L13 16.17V5c0-.55-.45-1-1-1s-1 .45-1 1z"></path>
</symbol>
<symbol id="m-arrow_back" viewBox="0 0 24 24"><path d="M19 11H7.83l4.88-4.88c.39-.39.39-1.03 0-1.42a.996.996 0 0 0-1.41 0l-6.59 6.59a.996.996 0 0 0 0 1.41l6.59 6.59a.996.996 0 1 0 1.41-1.41L7.83 13H19c.55 0 1-.45 1-1s-.45-1-1-1z"></path>
</symbol>
<symbol id="m-arrow_forward" viewBox="0 0 24 24"><path d="M5 13h11.17l-4.88 4.88c-.39.39-.39 1.03 0 1.42.39.39 1.02.39 1.41 0l6.59-6.59a.996.996 0 0 0 0-1.41l-6.58-6.6a.996.996 0 1 0-1.41 1.41L16.17 11H5c-.55 0-1 .45-1 1s.45 1 1 1z"></path>
</symbol>
<symbol id="m-arrow_upward" viewBox="0 0 24 24"><path d="M13 19V7.83l4.88 4.88c.39.39 1.03.39 1.42 0a.996.996 0 0 0 0-1.41l-6.59-6.59a.996.996 0 0 0-1.41 0l-6.6 6.58a.996.996 0 1 0 1.41 1.41L11 7.83V19c0 .55.45 1 1 1s1-.45 1-1z"></path>
</symbol>
<symbol id="m-sync_alt" viewBox="0 0 24 24"><path d="m21.65 7.65-2.79-2.79a.501.501 0 0 0-.86.35V7H4c-.55 0-1 .45-1 1s.45 1 1 1h14v1.79c0 .45.54.67.85.35l2.79-2.79c.2-.19.2-.51.01-.7zM20 15H6v-1.79c0-.45-.54-.67-.85-.35l-2.79 2.79c-.2.19-.2.51-.01.7l2.79 2.79c.32.32.86.1.86-.35V17h14c.55 0 1-.45 1-1s-.45-1-1-1z"></path>
</symbol>
<symbol id="m-height" viewBox="0 0 24 24"><path d="M13 6.99h1.79c.45 0 .67-.54.35-.85l-2.79-2.78a.513.513 0 0 0-.71 0L8.86 6.14c-.32.31-.1.85.35.85H11v10.02H9.21c-.45 0-.67.54-.35.85l2.79 2.78c.2.19.51.19.71 0l2.79-2.78c.32-.31.09-.85-.35-.85H13V6.99z"></path>
</symbol>
<symbol id="m-emergency" viewBox="0 0 24 24"><path d="m20.29 8.37-1-1.73a1.01 1.01 0 0 0-1.37-.37L14 8.54V4c0-.55-.45-1-1-1h-2c-.55 0-1 .45-1 1v4.54L6.07 6.27a.993.993 0 0 0-1.36.36l-1 1.73c-.28.48-.12 1.1.36 1.37L8 12l-3.93 2.27c-.48.28-.64.89-.37 1.37l1 1.73c.28.48.89.64 1.37.37L10 15.46V20c0 .55.45 1 1 1h2c.55 0 1-.45 1-1v-4.54l3.93 2.27c.48.28 1.09.11 1.37-.37l1-1.73c.28-.48.11-1.09-.37-1.37L16 12l3.93-2.27c.48-.27.64-.89.36-1.36z"></path>
</symbol>
<symbol id="m-alternate_email" viewBox="0 0 24 24"><path d="M12.72 2.03A9.991 9.991 0 0 0 2.03 12.72C2.39 18.01 7.01 22 12.31 22H16c.55 0 1-.45 1-1s-.45-1-1-1h-3.67c-3.73 0-7.15-2.42-8.08-6.03-1.49-5.8 3.91-11.21 9.71-9.71C17.58 5.18 20 8.6 20 12.33v1.1c0 .79-.71 1.57-1.5 1.57s-1.5-.78-1.5-1.57v-1.25c0-2.51-1.78-4.77-4.26-5.12a5.008 5.008 0 0 0-5.66 5.87 4.996 4.996 0 0 0 3.72 3.94c1.84.43 3.59-.16 4.74-1.33.89 1.22 2.67 1.86 4.3 1.21 1.34-.53 2.16-1.9 2.16-3.34v-1.09c0-5.31-3.99-9.93-9.28-10.29zM12 15c-1.66 0-3-1.34-3-3s1.34-3 3-3 3 1.34 3 3-1.34 3-3 3z"></path>
</symbol>
<symbol id="m-fast_rewind" viewBox="0 0 24 24"><path d="M11 16.07V7.93c0-.81-.91-1.28-1.58-.82l-5.77 4.07c-.56.4-.56 1.24 0 1.63l5.77 4.07c.67.47 1.58 0 1.58-.81zm1.66-3.25 5.77 4.07c.66.47 1.58-.01 1.58-.82V7.93c0-.81-.91-1.28-1.58-.82l-5.77 4.07a1 1 0 0 0 0 1.64z"></path>
</symbol>
<symbol id="m-block" viewBox="0 0 24 24"><path d="M12 2C6.48 2 2 6.48 2 12s4.48 10 10 10 10-4.48 10-10S17.52 2 12 2zM4 12c0-4.42 3.58-8 8-8 1.85 0 3.55.63 4.9 1.69L5.69 16.9A7.902 7.902 0 0 1 4 12zm8 8c-1.85 0-3.55-.63-4.9-1.69L18.31 7.1A7.902 7.902 0 0 1 20 12c0 4.42-3.58 8-8 8z"></path>
</symbol>
<symbol id="m-menu" viewBox="0 0 24 24"><path d="M4 18h16c.55 0 1-.45 1-1s-.45-1-1-1H4c-.55 0-1 .45-1 1s.45 1 1 1zm0-5h16c.55 0 1-.45 1-1s-.45-1-1-1H4c-.55 0-1 .45-1 1s.45 1 1 1zM3 7c0 .55.45 1 1 1h16c.55 0 1-.45 1-1s-.45-1-1-1H4c-.55 0-1 .45-1 1z"></path>
</symbol>
<symbol id="m-bed" viewBox="0 0 24 24"><path d="M21 10.78V8c0-1.65-1.35-3-3-3h-4c-.77 0-1.47.3-2 .78-.53-.48-1.23-.78-2-.78H6C4.35 5 3 6.35 3 8v2.78c-.61.55-1 1.34-1 2.22v5c0 .55.45 1 1 1s1-.45 1-1v-1h16v1c0 .55.45 1 1 1s1-.45 1-1v-5c0-.88-.39-1.67-1-2.22zM14 7h4c.55 0 1 .45 1 1v2h-6V8c0-.55.45-1 1-1zM5 8c0-.55.45-1 1-1h4c.55 0 1 .45 1 1v2H5V8zm-1 7v-2c0-.55.45-1 1-1h14c.55 0 1 .45 1 1v2H4z"></path>
</symbol>
<symbol id="m-notifications_off" viewBox="0 0 24 24"><path d="M12 22c1.1 0 2-.9 2-2h-4a2 2 0 0 0 2 2zm6-11c0-3.07-1.64-5.64-4.5-6.32V4c0-.83-.67-1.5-1.5-1.5s-1.5.67-1.5 1.5v.68c-.24.06-.47.15-.69.23L18 13.1V11zM5.41 3.35 4 4.76l2.81 2.81C6.29 8.57 6 9.73 6 11v5l-1.29 1.29c-.63.63-.19 1.71.7 1.71h12.83l1.74 1.74 1.41-1.41L5.41 3.35z"></path>
</symbol>
<symbol id="m-notifications" viewBox="0 0 24 24"><path d="M12 22c1.1 0 2-.9 2-2h-4a2 2 0 0 0 2 2zm6-6v-5c0-3.07-1.64-5.64-4.5-6.32V4c0-.83-.67-1.5-1.5-1.5s-1.5.67-1.5 1.5v.68C7.63 5.36 6 7.92 6 11v5l-1.29 1.29c-.63.63-.19 1.71.7 1.71h13.17c.89 0 1.34-1.08.71-1.71L18 16z"></path>
</symbol>
<symbol id="m-cake" viewBox="0 0 24 24"><path d="M12.68 5.88c.7-.24 1.22-.9 1.3-1.64.05-.47-.05-.91-.28-1.27L12.42.75a.506.506 0 0 0-.87 0l-1.28 2.22c-.17.3-.27.65-.27 1.03 0 1.32 1.3 2.35 2.68 1.88zm3.85 10.04-1-1-1.08 1.07c-1.3 1.3-3.58 1.31-4.89 0l-1.07-1.07-1.09 1.07C6.75 16.64 5.88 17 4.96 17c-.73 0-1.4-.23-1.96-.61V20c0 1.1.9 2 2 2h14c1.1 0 2-.9 2-2v-3.61c-.75.51-1.71.75-2.74.52-.66-.14-1.25-.51-1.73-.99zM18 9h-5V8c0-.55-.45-1-1-1s-1 .45-1 1v1H6c-1.66 0-3 1.34-3 3v1.46c0 .85.5 1.67 1.31 1.94.73.24 1.52.06 2.03-.46l2.14-2.13 2.13 2.13c.76.76 2.01.76 2.77 0l2.14-2.13 2.13 2.13c.43.43 1.03.63 1.65.55.99-.13 1.69-1.06 1.69-2.06v-1.42A2.983 2.983 0 0 0 18 9z"></path>
</symbol>
<symbol id="m-format_bold" viewBox="0 0 24 24"><path d="M15.6 10.79c.97-.67 1.65-1.77 1.65-2.79 0-2.26-1.75-4-4-4H8c-.55 0-1 .45-1 1v12c0 .55.45 1 1 1h5.78c2.07 0 3.96-1.69 3.97-3.77.01-1.53-.85-2.84-2.15-3.44zM10 6.5h3c.83 0 1.5.67 1.5 1.5s-.67 1.5-1.5 1.5h-3v-3zm3.5 9H10v-3h3.5c.83 0 1.5.67 1.5 1.5s-.67 1.5-1.5 1.5z"></path>
</symbol>
<symbol id="m-local_library" viewBox="0 0 24 24"><path d="M12 11.55c-1.82-1.7-4.12-2.89-6.68-3.35C4.11 7.99 3 8.95 3 10.18v6.24c0 1.68.72 2.56 1.71 2.69 2.5.32 4.77 1.35 6.63 2.87.35.29.92.32 1.27.04 1.87-1.53 4.16-2.58 6.68-2.9.94-.13 1.71-1.06 1.71-2.02v-6.92c0-1.23-1.11-2.19-2.32-1.98-2.56.46-4.86 1.65-6.68 3.35zM12 8c1.66 0 3-1.34 3-3s-1.34-3-3-3-3 1.34-3 3 1.34 3 3 3z"></path>
</symbol>
<symbol id="m-book" viewBox="0 0 24 24"><path d="M18 2H6c-1.1 0-2 .9-2 2v16c0 1.1.9 2 2 2h12c1.1 0 2-.9 2-2V4c0-1.1-.9-2-2-2zM6 4h5v8l-2.5-1.5L6 12V4z"></path>
</symbol>
<symbol id="m-bookmark" viewBox="0 0 24 24"><path d="M17 3H7c-1.1 0-2 .9-2 2v16l7-3 7 3V5c0-1.1-.9-2-2-2z"></path>
</symbol>
<symbol id="m-business_center" viewBox="0 0 24 24"><path d="M13 16h-2c-.55 0-1-.45-1-1H3.01v4c0 1.1.9 2 2 2H19c1.1 0 2-.9 2-2v-4h-7c0 .55-.45 1-1 1zm7-9h-4c0-2.21-1.79-4-4-4S8 4.79 8 7H4c-1.1 0-2 .9-2 2v3c0 1.11.89 2 2 2h6v-1c0-.55.45-1 1-1h2c.55 0 1 .45 1 1v1h6c1.1 0 2-.9 2-2V9c0-1.1-.9-2-2-2zM10 7c0-1.1.9-2 2-2s2 .9 2 2H9.99 10z"></path>
</symbol>
<symbol id="m-crisis_alert" viewBox="0 0 24 24"><path d="M14.5 2.5c0 1.5-1.5 6-1.5 6h-2S9.5 4 9.5 2.5a2.5 2.5 0 0 1 5 0zM12 10c-1.1 0-2 .9-2 2s.9 2 2 2 2-.9 2-2-.9-2-2-2zm4.08-4.89c.18-.75.33-1.47.39-2.06A9.996 9.996 0 0 1 22 12c0 5.52-4.48 10-10 10S2 17.52 2 12c0-3.92 2.25-7.31 5.53-8.95.07.59.21 1.32.39 2.06A8.028 8.028 0 0 0 4 12c0 4.42 3.58 8 8 8s8-3.58 8-8c0-2.93-1.58-5.49-3.92-6.89zM18 12c0 3.31-2.69 6-6 6s-6-2.69-6-6c0-2 .98-3.77 2.48-4.86.23.81.65 2.07.65 2.07C8.43 9.93 8 10.92 8 12c0 2.21 1.79 4 4 4s4-1.79 4-4c0-1.08-.43-2.07-1.13-2.79 0 0 .41-1.22.65-2.07A5.998 5.998 0 0 1 18 12z"></path>
</symbol>
<symbol id="m-calendar_month" viewBox="0 0 24 24"><path d="M17 2c-.55 0-1 .45-1 1v1H8V3c0-.55-.45-1-1-1s-1 .45-1 1v1H5c-1.11 0-1.99.9-1.99 2L3 20a2 2 0 0 0 2 2h14c1.1 0 2-.9 2-2V6c0-1.1-.9-2-2-2h-1V3c0-.55-.45-1-1-1zm2 18H5V10h14v10zm-8-7c0-.55.45-1 1-1s1 .45 1 1-.45 1-1 1-1-.45-1-1zm-4 0c0-.55.45-1 1-1s1 .45 1 1-.45 1-1 1-1-.45-1-1zm8 0c0-.55.45-1 1-1s1 .45 1 1-.45 1-1 1-1-.45-1-1zm-4 4c0-.55.45-1 1-1s1 .45 1 1-.45 1-1 1-1-.45-1-1zm-4 0c0-.55.45-1 1-1s1 .45 1 1-.45 1-1 1-1-.45-1-1zm8 0c0-.55.45-1 1-1s1 .45 1 1-.45 1-1 1-1-.45-1-1z"></path>
</symbol>
<symbol id="m-arrow_drop_down" viewBox="0 0 24 24"><path d="m8.71 11.71 2.59 2.59c.39.39 1.02.39 1.41 0l2.59-2.59c.63-.63.18-1.71-.71-1.71H9.41c-.89 0-1.33 1.08-.7 1.71z"></path>
</symbol>
<symbol id="m-arrow_left" viewBox="0 0 24 24"><path d="M12.29 8.71 9.7 11.3a.996.996 0 0 0 0 1.41l2.59 2.59c.63.63 1.71.18 1.71-.71V9.41c0-.89-1.08-1.33-1.71-.7z"></path>
</symbol>
<symbol id="m-arrow_right" viewBox="0 0 24 24"><path d="m11.71 15.29 2.59-2.59a.996.996 0 0 0 0-1.41L11.71 8.7c-.63-.62-1.71-.18-1.71.71v5.17c0 .9 1.08 1.34 1.71.71z"></path>
</symbol>
<symbol id="m-arrow_drop_up" viewBox="0 0 24 24"><path d="M8.71 12.29 11.3 9.7a.996.996 0 0 1 1.41 0l2.59 2.59c.63.63.18 1.71-.71 1.71H9.41c-.89 0-1.33-1.08-.7-1.71z"></path>
</symbol>
<symbol id="m-verified" viewBox="0 0 24 24"><path d="m23 12-2.44-2.79.34-3.69-3.61-.82-1.89-3.2L12 2.96 8.6 1.5 6.71 4.69 3.1 5.5l.34 3.7L1 12l2.44 2.79-.34 3.7 3.61.82L8.6 22.5l3.4-1.47 3.4 1.46 1.89-3.19 3.61-.82-.34-3.69L23 12zM9.38 16.01 7 13.61a.996.996 0 0 1 0-1.41l.07-.07c.39-.39 1.03-.39 1.42 0l1.61 1.62 5.15-5.16c.39-.39 1.03-.39 1.42 0l.07.07c.39.39.39 1.02 0 1.41l-5.92 5.94c-.41.39-1.04.39-1.44 0z"></path>
</symbol>
<symbol id="m-insert_chart" viewBox="0 0 24 24"><path d="M19 3H5c-1.1 0-2 .9-2 2v14c0 1.1.9 2 2 2h14c1.1 0 2-.9 2-2V5c0-1.1-.9-2-2-2zM8 17c-.55 0-1-.45-1-1v-5c0-.55.45-1 1-1s1 .45 1 1v5c0 .55-.45 1-1 1zm4 0c-.55 0-1-.45-1-1V8c0-.55.45-1 1-1s1 .45 1 1v8c0 .55-.45 1-1 1zm4 0c-.55 0-1-.45-1-1v-2c0-.55.45-1 1-1s1 .45 1 1v2c0 .55-.45 1-1 1z"></path>
</symbol>
<symbol id="m-pie_chart" viewBox="0 0 24 24"><path d="M11 3.18v17.64c0 .64-.59 1.12-1.21.98C5.32 20.8 2 16.79 2 12s3.32-8.8 7.79-9.8a.998.998 0 0 1 1.21.98zm2.03 0v6.81c0 .55.45 1 1 1h6.79c.64 0 1.12-.59.98-1.22-.85-3.76-3.8-6.72-7.55-7.57-.63-.14-1.22.34-1.22.98zm0 10.83v6.81c0 .64.59 1.12 1.22.98 3.76-.85 6.71-3.82 7.56-7.58.14-.62-.35-1.22-.98-1.22h-6.79c-.56.01-1.01.46-1.01 1.01z"></path>
</symbol>
<symbol id="m-check_circle" viewBox="0 0 24 24"><path d="M12 2C6.48 2 2 6.48 2 12s4.48 10 10 10 10-4.48 10-10S17.52 2 12 2zM9.29 16.29 5.7 12.7a.996.996 0 1 1 1.41-1.41L10 14.17l6.88-6.88a.996.996 0 1 1 1.41 1.41l-7.59 7.59a.996.996 0 0 1-1.41 0z"></path>
</symbol>
<symbol id="m-check_box" viewBox="0 0 24 24"><path d="M19 3H5c-1.1 0-2 .9-2 2v14c0 1.1.9 2 2 2h14c1.1 0 2-.9 2-2V5c0-1.1-.9-2-2-2zm-8.29 13.29a.996.996 0 0 1-1.41 0L5.71 12.7a.996.996 0 1 1 1.41-1.41L10 14.17l6.88-6.88a.996.996 0 1 1 1.41 1.41l-7.58 7.59z"></path>
</symbol>
<symbol id="m-check" viewBox="0 0 24 24"><path d="M9 16.17 5.53 12.7a.996.996 0 1 0-1.41 1.41l4.18 4.18c.39.39 1.02.39 1.41 0L20.29 7.71a.996.996 0 1 0-1.41-1.41L9 16.17z"></path>
</symbol>
<symbol id="m-expand_circle_down" viewBox="0 0 24 24"><path d="M12 2C6.48 2 2 6.48 2 12s4.48 10 10 10 10-4.48 10-10S17.52 2 12 2zm3.79 9.71-3.08 3.08c-.39.39-1.02.39-1.42 0l-3.08-3.08c-.39-.39-.39-1.03 0-1.42a.996.996 0 0 1 1.41 0L12 12.67l2.38-2.38a.996.996 0 0 1 1.41 0c.39.39.39 1.03 0 1.42z"></path>
</symbol>
<symbol id="m-expand_more" viewBox="0 0 24 24"><path d="M15.88 9.29 12 13.17 8.12 9.29a.996.996 0 1 0-1.41 1.41l4.59 4.59c.39.39 1.02.39 1.41 0l4.59-4.59a.996.996 0 0 0 0-1.41c-.39-.38-1.03-.39-1.42 0z"></path>
</symbol>
<symbol id="m-chevron_left" viewBox="0 0 24 24"><path d="M14.71 6.71a.996.996 0 0 0-1.41 0L8.71 11.3a.996.996 0 0 0 0 1.41l4.59 4.59a.996.996 0 1 0 1.41-1.41L10.83 12l3.88-3.88c.39-.39.38-1.03 0-1.41z"></path>
</symbol>
<symbol id="m-chevron_right" viewBox="0 0 24 24"><path d="M9.29 6.71a.996.996 0 0 0 0 1.41L13.17 12l-3.88 3.88a.996.996 0 1 0 1.41 1.41l4.59-4.59a.996.996 0 0 0 0-1.41L10.7 6.7c-.38-.38-1.02-.38-1.41.01z"></path>
</symbol>
<symbol id="m-expand_less" viewBox="0 0 24 24"><path d="M11.29 8.71 6.7 13.3a.996.996 0 1 0 1.41 1.41L12 10.83l3.88 3.88a.996.996 0 1 0 1.41-1.41L12.7 8.71a.996.996 0 0 0-1.41 0z"></path>
</symbol>
<symbol id="m-lens" viewBox="0 0 24 24"><path d="M12 2C6.48 2 2 6.48 2 12s4.48 10 10 10 10-4.48 10-10S17.52 2 12 2z"></path>
</symbol>
<symbol id="m-code" viewBox="0 0 24 24"><path d="M8.7 15.9 4.8 12l3.9-3.9a.984.984 0 0 0 0-1.4.984.984 0 0 0-1.4 0l-4.59 4.59a.996.996 0 0 0 0 1.41l4.59 4.6c.39.39 1.01.39 1.4 0a.984.984 0 0 0 0-1.4zm6.6 0 3.9-3.9-3.9-3.9a.984.984 0 0 1 0-1.4.984.984 0 0 1 1.4 0l4.59 4.59c.39.39.39 1.02 0 1.41l-4.59 4.6a.984.984 0 0 1-1.4 0 .984.984 0 0 1 0-1.4z"></path>
</symbol>
<symbol id="m-settings" viewBox="0 0 24 24"><path d="M19.5 12c0-.23-.01-.45-.03-.68l1.86-1.41c.4-.3.51-.86.26-1.3l-1.87-3.23a.987.987 0 0 0-1.25-.42l-2.15.91c-.37-.26-.76-.49-1.17-.68l-.29-2.31c-.06-.5-.49-.88-.99-.88h-3.73c-.51 0-.94.38-1 .88l-.29 2.31c-.41.19-.8.42-1.17.68l-2.15-.91c-.46-.2-1-.02-1.25.42L2.41 8.62c-.25.44-.14.99.26 1.3l1.86 1.41a7.343 7.343 0 0 0 0 1.35l-1.86 1.41c-.4.3-.51.86-.26 1.3l1.87 3.23c.25.44.79.62 1.25.42l2.15-.91c.37.26.76.49 1.17.68l.29 2.31c.06.5.49.88.99.88h3.73c.5 0 .93-.38.99-.88l.29-2.31c.41-.19.8-.42 1.17-.68l2.15.91c.46.2 1 .02 1.25-.42l1.87-3.23c.25-.44.14-.99-.26-1.3l-1.86-1.41c.03-.23.04-.45.04-.68zm-7.46 3.5c-1.93 0-3.5-1.57-3.5-3.5s1.57-3.5 3.5-3.5 3.5 1.57 3.5 3.5-1.57 3.5-3.5 3.5z"></path>
</symbol>
<symbol id="m-view_column" viewBox="0 0 24 24"><path d="M14.67 6v12c0 .55-.45 1-1 1h-3.33c-.55 0-1-.45-1-1V6c0-.55.45-1 1-1h3.33c.55 0 1 .45 1 1zm2 13H20c.55 0 1-.45 1-1V6c0-.55-.45-1-1-1h-3.33c-.55 0-1 .45-1 1v12c0 .55.44 1 1 1zm-8.34-1V6c0-.55-.45-1-1-1H4c-.55 0-1 .45-1 1v12c0 .55.45 1 1 1h3.33c.56 0 1-.45 1-1z"></path>
</symbol>
<symbol id="m-speaker_notes_off" viewBox="0 0 24 24"><path d="M1.91 2.36c-.35-.35-.92-.35-1.27 0s-.35.92 0 1.27l1.38 1.38L2 22l4-4h9l5.09 5.09c.35.35.92.35 1.27 0s.35-.92 0-1.27L1.91 2.36zM7 14c-.55 0-1-.45-1-1s.45-1 1-1 1 .45 1 1-.45 1-1 1zm0-3c-.55 0-1-.45-1-1s.45-1 1-1 1 .45 1 1-.45 1-1 1zm13-9H4.08l7 7H17c.55 0 1 .45 1 1s-.45 1-1 1h-3.92l6.99 6.99C21.14 17.95 22 17.08 22 16V4c0-1.1-.9-2-2-2zm-3 6h-6c-.55 0-1-.45-1-1s.45-1 1-1h6c.55 0 1 .45 1 1s-.45 1-1 1z"></path>
</symbol>
<symbol id="m-comment" viewBox="0 0 24 24"><path d="M21.99 4c0-1.1-.89-2-1.99-2H4c-1.1 0-2 .9-2 2v12c0 1.1.9 2 2 2h14l4 4-.01-18zM17 14H7c-.55 0-1-.45-1-1s.45-1 1-1h10c.55 0 1 .45 1 1s-.45 1-1 1zm0-3H7c-.55 0-1-.45-1-1s.45-1 1-1h10c.55 0 1 .45 1 1s-.45 1-1 1zm0-3H7c-.55 0-1-.45-1-1s.45-1 1-1h10c.55 0 1 .45 1 1s-.45 1-1 1z"></path>
</symbol>
<symbol id="m-forum" viewBox="0 0 24 24"><path d="M20 6h-1v8c0 .55-.45 1-1 1H6v1c0 1.1.9 2 2 2h10l4 4V8c0-1.1-.9-2-2-2zm-3 5V4c0-1.1-.9-2-2-2H4c-1.1 0-2 .9-2 2v13l4-4h9c1.1 0 2-.9 2-2z"></path>
</symbol>
<symbol id="m-compress" viewBox="0 0 24 24"><path d="M4 10c0 .55.45 1 1 1h14c.55 0 1-.45 1-1s-.45-1-1-1H5c-.55 0-1 .45-1 1zm10.79-6H13V2c0-.55-.45-1-1-1s-1 .45-1 1v2H9.21a.5.5 0 0 0-.36.85l2.79 2.79c.2.2.51.2.71 0l2.79-2.79c.32-.31.1-.85-.35-.85zM9.21 19H11v2c0 .55.45 1 1 1s1-.45 1-1v-2h1.79c.45 0 .67-.54.35-.85l-2.79-2.79c-.2-.2-.51-.2-.71 0l-2.79 2.79a.5.5 0 0 0 .36.85zM5 14h14c.55 0 1-.45 1-1s-.45-1-1-1H5c-.55 0-1 .45-1 1s.45 1 1 1z"></path>
</symbol>
<symbol id="m-content_copy" viewBox="0 0 24 24"><path d="M15 20H5V7c0-.55-.45-1-1-1s-1 .45-1 1v13c0 1.1.9 2 2 2h10c.55 0 1-.45 1-1s-.45-1-1-1zm5-4V4c0-1.1-.9-2-2-2H9c-1.1 0-2 .9-2 2v12c0 1.1.9 2 2 2h9c1.1 0 2-.9 2-2zm-2 0H9V4h9v12z"></path>
</symbol>
<symbol id="m-credit_card" viewBox="0 0 24 24"><path d="M20 4H4c-1.11 0-1.99.89-1.99 2L2 18c0 1.11.89 2 2 2h16c1.11 0 2-.89 2-2V6c0-1.11-.89-2-2-2zm-1 14H5c-.55 0-1-.45-1-1v-5h16v5c0 .55-.45 1-1 1zm1-10H4V6h16v2z"></path>
</symbol>
<symbol id="m-my_location" viewBox="0 0 24 24"><path d="M12 8c-2.21 0-4 1.79-4 4s1.79 4 4 4 4-1.79 4-4-1.79-4-4-4zm8.94 3A8.994 8.994 0 0 0 13 3.06V2c0-.55-.45-1-1-1s-1 .45-1 1v1.06A8.994 8.994 0 0 0 3.06 11H2c-.55 0-1 .45-1 1s.45 1 1 1h1.06A8.994 8.994 0 0 0 11 20.94V22c0 .55.45 1 1 1s1-.45 1-1v-1.06A8.994 8.994 0 0 0 20.94 13H22c.55 0 1-.45 1-1s-.45-1-1-1h-1.06zM12 19c-3.87 0-7-3.13-7-7s3.13-7 7-7 7 3.13 7 7-3.13 7-7 7z"></path>
</symbol>
<symbol id="m-view_in_ar" viewBox="0 0 24 24"><path d="M2 6c.55 0 1-.45 1-1V4c0-.55.45-1 1-1h1c.55 0 1-.45 1-1s-.45-1-1-1H4C2.34 1 1 2.34 1 4v1c0 .55.45 1 1 1zm3 15H4c-.55 0-1-.45-1-1v-1c0-.55-.45-1-1-1s-1 .45-1 1v1c0 1.66 1.34 3 3 3h1c.55 0 1-.45 1-1s-.45-1-1-1zM20 1h-1c-.55 0-1 .45-1 1s.45 1 1 1h1c.55 0 1 .45 1 1v1c0 .55.45 1 1 1s1-.45 1-1V4c0-1.66-1.34-3-3-3zm2 17c-.55 0-1 .45-1 1v1c0 .55-.45 1-1 1h-1c-.55 0-1 .45-1 1s.45 1 1 1h1c1.66 0 3-1.34 3-3v-1c0-.55-.45-1-1-1zm-3-3.13V9.13c0-.72-.38-1.38-1-1.73l-5-2.88c-.31-.18-.65-.27-1-.27s-.69.09-1 .27L6 7.39c-.62.36-1 1.02-1 1.74v5.74c0 .72.38 1.38 1 1.73l5 2.88c.31.18.65.27 1 .27s.69-.09 1-.27l5-2.88c.62-.35 1-1.01 1-1.73zm-8 2.3-4-2.3v-4.63l4 2.33v4.6zm1-6.33L8.04 8.53 12 6.25l3.96 2.28L12 10.84zm5 4.03-4 2.3v-4.6l4-2.33v4.63z"></path>
</symbol>
<symbol id="m-chat_bubble" viewBox="0 0 24 24"><path d="M20 2H4c-1.1 0-2 .9-2 2v18l4-4h14c1.1 0 2-.9 2-2V4c0-1.1-.9-2-2-2z"></path>
</symbol>
<symbol id="m-arrow_right" viewBox="0 0 24 24"><path d="m11.71 15.29 2.59-2.59a.996.996 0 0 0 0-1.41L11.71 8.7c-.63-.62-1.71-.18-1.71.71v5.17c0 .9 1.08 1.34 1.71.71z"></path>
</symbol>
<symbol id="m-arrow_drop_down" viewBox="0 0 24 24"><path d="m8.71 11.71 2.59 2.59c.39.39 1.02.39 1.41 0l2.59-2.59c.63-.63.18-1.71-.71-1.71H9.41c-.89 0-1.33 1.08-.7 1.71z"></path>
</symbol>
<symbol id="m-favorite" viewBox="0 0 24 24"><path d="M13.35 20.13c-.76.69-1.93.69-2.69-.01l-.11-.1C5.3 15.27 1.87 12.16 2 8.28c.06-1.7.93-3.33 2.34-4.29 2.64-1.8 5.9-.96 7.66 1.1 1.76-2.06 5.02-2.91 7.66-1.1 1.41.96 2.28 2.59 2.34 4.29.14 3.88-3.3 6.99-8.55 11.76l-.1.09z"></path>
</symbol>
<symbol id="m-notifications_off" viewBox="0 0 24 24"><path d="M12 22c1.1 0 2-.9 2-2h-4a2 2 0 0 0 2 2zm6-11c0-3.07-1.64-5.64-4.5-6.32V4c0-.83-.67-1.5-1.5-1.5s-1.5.67-1.5 1.5v.68c-.24.06-.47.15-.69.23L18 13.1V11zM5.41 3.35 4 4.76l2.81 2.81C6.29 8.57 6 9.73 6 11v5l-1.29 1.29c-.63.63-.19 1.71.7 1.71h12.83l1.74 1.74 1.41-1.41L5.41 3.35z"></path>
</symbol>
<symbol id="m-link" viewBox="0 0 24 24"><path d="M17 7h-3c-.55 0-1 .45-1 1s.45 1 1 1h3c1.65 0 3 1.35 3 3s-1.35 3-3 3h-3c-.55 0-1 .45-1 1s.45 1 1 1h3c2.76 0 5-2.24 5-5s-2.24-5-5-5zm-9 5c0 .55.45 1 1 1h6c.55 0 1-.45 1-1s-.45-1-1-1H9c-.55 0-1 .45-1 1zm2 3H7c-1.65 0-3-1.35-3-3s1.35-3 3-3h3c.55 0 1-.45 1-1s-.45-1-1-1H7c-2.76 0-5 2.24-5 5s2.24 5 5 5h3c.55 0 1-.45 1-1s-.45-1-1-1z"></path>
</symbol>
<symbol id="m-notifications_none" viewBox="0 0 24 24"><path d="M19.29 17.29 18 16v-5c0-3.07-1.64-5.64-4.5-6.32V4c0-.83-.67-1.5-1.5-1.5s-1.5.67-1.5 1.5v.68C7.63 5.36 6 7.92 6 11v5l-1.29 1.29c-.63.63-.19 1.71.7 1.71h13.17c.9 0 1.34-1.08.71-1.71zM16 17H8v-6c0-2.48 1.51-4.5 4-4.5s4 2.02 4 4.5v6zm-4 5c1.1 0 2-.9 2-2h-4a2 2 0 0 0 2 2z"></path>
</symbol>
<symbol id="m-link" viewBox="0 0 24 24"><path d="M17 7h-3c-.55 0-1 .45-1 1s.45 1 1 1h3c1.65 0 3 1.35 3 3s-1.35 3-3 3h-3c-.55 0-1 .45-1 1s.45 1 1 1h3c2.76 0 5-2.24 5-5s-2.24-5-5-5zm-9 5c0 .55.45 1 1 1h6c.55 0 1-.45 1-1s-.45-1-1-1H9c-.55 0-1 .45-1 1zm2 3H7c-1.65 0-3-1.35-3-3s1.35-3 3-3h3c.55 0 1-.45 1-1s-.45-1-1-1H7c-2.76 0-5 2.24-5 5s2.24 5 5 5h3c.55 0 1-.45 1-1s-.45-1-1-1z"></path>
</symbol>
<symbol id="m-notifications" viewBox="0 0 24 24"><path d="M12 22c1.1 0 2-.9 2-2h-4a2 2 0 0 0 2 2zm6-6v-5c0-3.07-1.64-5.64-4.5-6.32V4c0-.83-.67-1.5-1.5-1.5s-1.5.67-1.5 1.5v.68C7.63 5.36 6 7.92 6 11v5l-1.29 1.29c-.63.63-.19 1.71.7 1.71h13.17c.89 0 1.34-1.08.71-1.71L18 16z"></path>
</symbol>
<symbol id="m-favorite_border" viewBox="0 0 24 24"><path d="M19.66 3.99c-2.64-1.8-5.9-.96-7.66 1.1-1.76-2.06-5.02-2.91-7.66-1.1-1.4.96-2.28 2.58-2.34 4.29-.14 3.88 3.3 6.99 8.55 11.76l.1.09c.76.69 1.93.69 2.69-.01l.11-.1c5.25-4.76 8.68-7.87 8.55-11.75-.06-1.7-.94-3.32-2.34-4.28zM12.1 18.55l-.1.1-.1-.1C7.14 14.24 4 11.39 4 8.5 4 6.5 5.5 5 7.5 5c1.54 0 3.04.99 3.57 2.36h1.87C13.46 5.99 14.96 5 16.5 5c2 0 3.5 1.5 3.5 3.5 0 2.89-3.14 5.74-7.9 10.05z"></path>
</symbol>
<symbol id="m-notifications" viewBox="0 0 24 24"><path d="M12 22c1.1 0 2-.9 2-2h-4a2 2 0 0 0 2 2zm6-6v-5c0-3.07-1.64-5.64-4.5-6.32V4c0-.83-.67-1.5-1.5-1.5s-1.5.67-1.5 1.5v.68C7.63 5.36 6 7.92 6 11v5l-1.29 1.29c-.63.63-.19 1.71.7 1.71h13.17c.89 0 1.34-1.08.71-1.71L18 16z"></path>
</symbol>
<symbol id="m-notification_important" viewBox="0 0 24 24"><path d="M12 23c1.1 0 1.99-.89 1.99-1.99h-3.98c0 1.1.89 1.99 1.99 1.99zm8.29-4.71L19 17v-6c0-3.35-2.36-6.15-5.5-6.83V3c0-.83-.67-1.5-1.5-1.5s-1.5.67-1.5 1.5v1.17C7.36 4.85 5 7.65 5 11v6l-1.29 1.29c-.63.63-.19 1.71.7 1.71h15.17c.9 0 1.34-1.08.71-1.71zM13 16h-2v-2h2v2zm0-5c0 .55-.45 1-1 1s-1-.45-1-1V9c0-.55.45-1 1-1s1 .45 1 1v2z"></path>
</symbol>
<symbol id="m-computer" viewBox="0 0 24 24"><path d="M20 18c1.1 0 1.99-.9 1.99-2L22 6c0-1.1-.9-2-2-2H4c-1.1 0-2 .9-2 2v10c0 1.1.9 2 2 2H1c-.55 0-1 .45-1 1s.45 1 1 1h22c.55 0 1-.45 1-1s-.45-1-1-1h-3zM5 6h14c.55 0 1 .45 1 1v8c0 .55-.45 1-1 1H5c-.55 0-1-.45-1-1V7c0-.55.45-1 1-1z"></path>
</symbol>
<symbol id="m-notification_important" viewBox="0 0 24 24"><path d="M12 23c1.1 0 1.99-.89 1.99-1.99h-3.98c0 1.1.89 1.99 1.99 1.99zm8.29-4.71L19 17v-6c0-3.35-2.36-6.15-5.5-6.83V3c0-.83-.67-1.5-1.5-1.5s-1.5.67-1.5 1.5v1.17C7.36 4.85 5 7.65 5 11v6l-1.29 1.29c-.63.63-.19 1.71.7 1.71h15.17c.9 0 1.34-1.08.71-1.71zM13 16h-2v-2h2v2zm0-5c0 .55-.45 1-1 1s-1-.45-1-1V9c0-.55.45-1 1-1s1 .45 1 1v2z"></path>
</symbol>
<symbol id="m-notifications" viewBox="0 0 24 24"><path d="M12 22c1.1 0 2-.9 2-2h-4a2 2 0 0 0 2 2zm6-6v-5c0-3.07-1.64-5.64-4.5-6.32V4c0-.83-.67-1.5-1.5-1.5s-1.5.67-1.5 1.5v.68C7.63 5.36 6 7.92 6 11v5l-1.29 1.29c-.63.63-.19 1.71.7 1.71h13.17c.89 0 1.34-1.08.71-1.71L18 16z"></path>
</symbol>
<symbol id="m-notifications_off" viewBox="0 0 24 24"><path d="M12 22c1.1 0 2-.9 2-2h-4a2 2 0 0 0 2 2zm6-11c0-3.07-1.64-5.64-4.5-6.32V4c0-.83-.67-1.5-1.5-1.5s-1.5.67-1.5 1.5v.68c-.24.06-.47.15-.69.23L18 13.1V11zM5.41 3.35 4 4.76l2.81 2.81C6.29 8.57 6 9.73 6 11v5l-1.29 1.29c-.63.63-.19 1.71.7 1.71h12.83l1.74 1.74 1.41-1.41L5.41 3.35z"></path>
</symbol>
<symbol id="m-close_fullscreen" viewBox="0 0 24 24"><path d="M21.29 4.12 16.7 8.71l1.59 1.59c.63.63.18 1.71-.71 1.71H13c-.55 0-1-.45-1-1v-4.6c0-.89 1.08-1.34 1.71-.71l1.59 1.59 4.59-4.59a.996.996 0 0 1 1.41 0c.38.4.38 1.03-.01 1.42zM4.12 21.29l4.59-4.59 1.59 1.59c.63.63 1.71.18 1.71-.71V13c0-.55-.45-1-1-1h-4.6c-.89 0-1.34 1.08-.71 1.71l1.59 1.59-4.59 4.59a.996.996 0 0 0 0 1.41c.4.38 1.03.38 1.42-.01z"></path>
</symbol>
<symbol id="m-add_reaction" viewBox="0 0 24 24"><path d="M24 4c0 .55-.45 1-1 1h-1v1c0 .55-.45 1-1 1s-1-.45-1-1V5h-1c-.55 0-1-.45-1-1s.45-1 1-1h1V2c0-.55.45-1 1-1s1 .45 1 1v1h1c.55 0 1 .45 1 1zm-2.48 4.95c.31.96.48 1.99.48 3.05 0 5.52-4.48 10-10 10S2 17.52 2 12 6.48 2 12 2c1.5 0 2.92.34 4.2.94-.12.33-.2.68-.2 1.06 0 1.35.9 2.5 2.13 2.87A3.003 3.003 0 0 0 21 9c.18 0 .35-.02.52-.05zM7 9.5c0 .83.67 1.5 1.5 1.5s1.5-.67 1.5-1.5S9.33 8 8.5 8 7 8.67 7 9.5zm9.31 4.5H7.69c-.38 0-.63.42-.44.75.95 1.64 2.72 2.75 4.75 2.75s3.8-1.11 4.75-2.75a.503.503 0 0 0-.44-.75zM17 9.5c0-.83-.67-1.5-1.5-1.5S14 8.67 14 9.5s.67 1.5 1.5 1.5 1.5-.67 1.5-1.5z"></path>
</symbol>
<symbol id="m-open_in_full" viewBox="0 0 24 24"><path d="M21 8.59V4c0-.55-.45-1-1-1h-4.59c-.89 0-1.34 1.08-.71 1.71l1.59 1.59-10 10-1.59-1.59c-.62-.63-1.7-.19-1.7.7V20c0 .55.45 1 1 1h4.59c.89 0 1.34-1.08.71-1.71L7.71 17.7l10-10 1.59 1.59c.62.63 1.7.19 1.7-.7z"></path>
</symbol>
<symbol id="m-interests" viewBox="0 0 24 24"><path d="M7.02 13c-2.21 0-4 1.79-4 4s1.79 4 4 4 4-1.79 4-4-1.79-4-4-4zM13 14v6c0 .55.45 1 1 1h6c.55 0 1-.45 1-1v-6c0-.55-.45-1-1-1h-6c-.55 0-1 .45-1 1zM6.13 3.57l-3.3 5.94c-.37.67.11 1.49.87 1.49h6.6c.76 0 1.24-.82.87-1.49l-3.3-5.94a.997.997 0 0 0-1.74 0zM19.25 2.5c-1.06 0-1.81.56-2.25 1.17-.44-.61-1.19-1.17-2.25-1.17C13.19 2.5 12 3.78 12 5.25c0 1.83 2.03 3.17 4.35 5.18a1 1 0 0 0 1.3 0C19.97 8.42 22 7.08 22 5.25c0-1.47-1.19-2.75-2.75-2.75z"></path>
</symbol>
<symbol id="m-file_download" viewBox="0 0 24 24"><path d="M16.59 9H15V4c0-.55-.45-1-1-1h-4c-.55 0-1 .45-1 1v5H7.41c-.89 0-1.34 1.08-.71 1.71l4.59 4.59c.39.39 1.02.39 1.41 0l4.59-4.59c.63-.63.19-1.71-.7-1.71zM5 19c0 .55.45 1 1 1h12c.55 0 1-.45 1-1s-.45-1-1-1H6c-.55 0-1 .45-1 1z"></path>
</symbol>
<symbol id="m-more_horiz" viewBox="0 0 24 24"><path d="M6 10c-1.1 0-2 .9-2 2s.9 2 2 2 2-.9 2-2-.9-2-2-2zm12 0c-1.1 0-2 .9-2 2s.9 2 2 2 2-.9 2-2-.9-2-2-2zm-6 0c-1.1 0-2 .9-2 2s.9 2 2 2 2-.9 2-2-.9-2-2-2z"></path>
</symbol>
<symbol id="m-more_vert" viewBox="0 0 24 24"><path d="M12 8c1.1 0 2-.9 2-2s-.9-2-2-2-2 .9-2 2 .9 2 2 2zm0 2c-1.1 0-2 .9-2 2s.9 2 2 2 2-.9 2-2-.9-2-2-2zm0 6c-1.1 0-2 .9-2 2s.9 2 2 2 2-.9 2-2-.9-2-2-2z"></path>
</symbol>
<symbol id="m-mail" viewBox="0 0 24 24"><path d="M20 4H4c-1.1 0-2 .9-2 2v12c0 1.1.9 2 2 2h16c1.1 0 2-.9 2-2V6c0-1.1-.9-2-2-2zm-.4 4.25-6.54 4.09c-.65.41-1.47.41-2.12 0L4.4 8.25a.85.85 0 1 1 .9-1.44L12 11l6.7-4.19a.85.85 0 1 1 .9 1.44z"></path>
</symbol>
<symbol id="m-comment" viewBox="0 0 24 24"><path d="M21.99 4c0-1.1-.89-2-1.99-2H4c-1.1 0-2 .9-2 2v12c0 1.1.9 2 2 2h14l4 4-.01-18zM17 14H7c-.55 0-1-.45-1-1s.45-1 1-1h10c.55 0 1 .45 1 1s-.45 1-1 1zm0-3H7c-.55 0-1-.45-1-1s.45-1 1-1h10c.55 0 1 .45 1 1s-.45 1-1 1zm0-3H7c-.55 0-1-.45-1-1s.45-1 1-1h10c.55 0 1 .45 1 1s-.45 1-1 1z"></path>
</symbol>
<symbol id="m-sync_alt" viewBox="0 0 24 24"><path d="m21.65 7.65-2.79-2.79a.501.501 0 0 0-.86.35V7H4c-.55 0-1 .45-1 1s.45 1 1 1h14v1.79c0 .45.54.67.85.35l2.79-2.79c.2-.19.2-.51.01-.7zM20 15H6v-1.79c0-.45-.54-.67-.85-.35l-2.79 2.79c-.2.19-.2.51-.01.7l2.79 2.79c.32.32.86.1.86-.35V17h14c.55 0 1-.45 1-1s-.45-1-1-1z"></path>
</symbol>
<symbol id="m-error" viewBox="0 0 24 24"><path d="M12 2C6.48 2 2 6.48 2 12s4.48 10 10 10 10-4.48 10-10S17.52 2 12 2zm0 11c-.55 0-1-.45-1-1V8c0-.55.45-1 1-1s1 .45 1 1v4c0 .55-.45 1-1 1zm1 4h-2v-2h2v2z"></path>
</symbol>
<symbol id="m-warning" viewBox="0 0 24 24"><path d="M4.47 21h15.06c1.54 0 2.5-1.67 1.73-3L13.73 4.99c-.77-1.33-2.69-1.33-3.46 0L2.74 18c-.77 1.33.19 3 1.73 3zM12 14c-.55 0-1-.45-1-1v-2c0-.55.45-1 1-1s1 .45 1 1v2c0 .55-.45 1-1 1zm1 4h-2v-2h2v2z"></path>
</symbol>
<symbol id="m-launch" viewBox="0 0 24 24"><path d="M18 19H6c-.55 0-1-.45-1-1V6c0-.55.45-1 1-1h5c.55 0 1-.45 1-1s-.45-1-1-1H5a2 2 0 0 0-2 2v14c0 1.1.9 2 2 2h14c1.1 0 2-.9 2-2v-6c0-.55-.45-1-1-1s-1 .45-1 1v5c0 .55-.45 1-1 1zM14 4c0 .55.45 1 1 1h2.59l-9.13 9.13a.996.996 0 1 0 1.41 1.41L19 6.41V9c0 .55.45 1 1 1s1-.45 1-1V3h-6c-.55 0-1 .45-1 1z"></path>
</symbol>
<symbol id="m-android" viewBox="0 0 24 24"><path d="m17.6 9.48 1.84-3.18c.16-.31.04-.69-.26-.85a.637.637 0 0 0-.83.22l-1.88 3.24a11.463 11.463 0 0 0-8.94 0L5.65 5.67a.643.643 0 0 0-.87-.2c-.28.18-.37.54-.22.83L6.4 9.48A10.78 10.78 0 0 0 1 18h22a10.78 10.78 0 0 0-5.4-8.52zM7 15.25a1.25 1.25 0 1 1 0-2.5 1.25 1.25 0 0 1 0 2.5zm10 0a1.25 1.25 0 1 1 0-2.5 1.25 1.25 0 0 1 0 2.5z"></path>
</symbol>
<symbol id="m-notifications_off" viewBox="0 0 24 24"><path d="M12 22c1.1 0 2-.9 2-2h-4a2 2 0 0 0 2 2zm6-11c0-3.07-1.64-5.64-4.5-6.32V4c0-.83-.67-1.5-1.5-1.5s-1.5.67-1.5 1.5v.68c-.24.06-.47.15-.69.23L18 13.1V11zM5.41 3.35 4 4.76l2.81 2.81C6.29 8.57 6 9.73 6 11v5l-1.29 1.29c-.63.63-.19 1.71.7 1.71h12.83l1.74 1.74 1.41-1.41L5.41 3.35z"></path>
</symbol>
<symbol id="m-notifications" viewBox="0 0 24 24"><path d="M12 22c1.1 0 2-.9 2-2h-4a2 2 0 0 0 2 2zm6-6v-5c0-3.07-1.64-5.64-4.5-6.32V4c0-.83-.67-1.5-1.5-1.5s-1.5.67-1.5 1.5v.68C7.63 5.36 6 7.92 6 11v5l-1.29 1.29c-.63.63-.19 1.71.7 1.71h13.17c.89 0 1.34-1.08.71-1.71L18 16z"></path>
</symbol>
<symbol id="m-insert_invitation" viewBox="0 0 24 24"><path d="M16 12h-3c-.55 0-1 .45-1 1v3c0 .55.45 1 1 1h3c.55 0 1-.45 1-1v-3c0-.55-.45-1-1-1zm0-10v1H8V2c0-.55-.45-1-1-1s-1 .45-1 1v1H5c-1.11 0-1.99.9-1.99 2L3 19a2 2 0 0 0 2 2h14c1.1 0 2-.9 2-2V5c0-1.1-.9-2-2-2h-1V2c0-.55-.45-1-1-1s-1 .45-1 1zm2 17H6c-.55 0-1-.45-1-1V8h14v10c0 .55-.45 1-1 1z"></path>
</symbol>
<symbol id="m-assessment" viewBox="0 0 24 24"><path d="M19 3H5c-1.1 0-2 .9-2 2v14c0 1.1.9 2 2 2h14c1.1 0 2-.9 2-2V5c0-1.1-.9-2-2-2zM8 17c-.55 0-1-.45-1-1v-5c0-.55.45-1 1-1s1 .45 1 1v5c0 .55-.45 1-1 1zm4 0c-.55 0-1-.45-1-1V8c0-.55.45-1 1-1s1 .45 1 1v8c0 .55-.45 1-1 1zm4 0c-.55 0-1-.45-1-1v-2c0-.55.45-1 1-1s1 .45 1 1v2c0 .55-.45 1-1 1z"></path>
</symbol>
<symbol id="m-check_box" viewBox="0 0 24 24"><path d="M19 3H5c-1.1 0-2 .9-2 2v14c0 1.1.9 2 2 2h14c1.1 0 2-.9 2-2V5c0-1.1-.9-2-2-2zm-8.29 13.29a.996.996 0 0 1-1.41 0L5.71 12.7a.996.996 0 1 1 1.41-1.41L10 14.17l6.88-6.88a.996.996 0 1 1 1.41 1.41l-7.58 7.59z"></path>
</symbol>
<symbol id="m-circle" viewBox="0 0 24 24"><path d="M12 2C6.47 2 2 6.47 2 12s4.47 10 10 10 10-4.47 10-10S17.53 2 12 2z"></path>
</symbol>
<symbol id="m-content_paste" viewBox="0 0 24 24"><path d="M19 2h-4.18C14.4.84 13.3 0 12 0S9.6.84 9.18 2H5c-1.1 0-2 .9-2 2v16c0 1.1.9 2 2 2h14c1.1 0 2-.9 2-2V4c0-1.1-.9-2-2-2zm-7 0c.55 0 1 .45 1 1s-.45 1-1 1-1-.45-1-1 .45-1 1-1zm6 18H6c-.55 0-1-.45-1-1V5c0-.55.45-1 1-1h1v1c0 1.1.9 2 2 2h6c1.1 0 2-.9 2-2V4h1c.55 0 1 .45 1 1v14c0 .55-.45 1-1 1z"></path>
</symbol>
<symbol id="m-schedule" viewBox="0 0 24 24"><path d="M11.99 2C6.47 2 2 6.48 2 12s4.47 10 9.99 10C17.52 22 22 17.52 22 12S17.52 2 11.99 2zM12 20c-4.42 0-8-3.58-8-8s3.58-8 8-8 8 3.58 8 8-3.58 8-8 8zm-.22-13h-.06c-.4 0-.72.32-.72.72v4.72c0 .35.18.68.49.86l4.15 2.49c.34.2.78.1.98-.24a.71.71 0 0 0-.25-.99l-3.87-2.3V7.72c0-.4-.32-.72-.72-.72z"></path>
</symbol>
<symbol id="m-comment" viewBox="0 0 24 24"><path d="M21.99 4c0-1.1-.89-2-1.99-2H4c-1.1 0-2 .9-2 2v12c0 1.1.9 2 2 2h14l4 4-.01-18zM17 14H7c-.55 0-1-.45-1-1s.45-1 1-1h10c.55 0 1 .45 1 1s-.45 1-1 1zm0-3H7c-.55 0-1-.45-1-1s.45-1 1-1h10c.55 0 1 .45 1 1s-.45 1-1 1zm0-3H7c-.55 0-1-.45-1-1s.45-1 1-1h10c.55 0 1 .45 1 1s-.45 1-1 1z"></path>
</symbol>
<symbol id="m-forum" viewBox="0 0 24 24"><path d="M20 6h-1v8c0 .55-.45 1-1 1H6v1c0 1.1.9 2 2 2h10l4 4V8c0-1.1-.9-2-2-2zm-3 5V4c0-1.1-.9-2-2-2H4c-1.1 0-2 .9-2 2v13l4-4h9c1.1 0 2-.9 2-2z"></path>
</symbol>
<symbol id="m-copyright" viewBox="0 0 24 24"><path d="M10.08 10.86c.05-.33.16-.62.3-.87s.34-.46.59-.62c.24-.15.54-.22.91-.23.23.01.44.05.63.13.2.09.38.21.52.36s.25.33.34.53.13.42.14.64h1.79c-.02-.47-.11-.9-.28-1.29s-.4-.73-.7-1.01-.66-.5-1.08-.66-.88-.23-1.39-.23c-.65 0-1.22.11-1.7.34s-.88.53-1.2.92-.56.84-.71 1.36S8 11.29 8 11.87v.27c0 .58.08 1.12.23 1.64s.39.97.71 1.35.72.69 1.2.91c.48.22 1.05.34 1.7.34.47 0 .91-.08 1.32-.23s.77-.36 1.08-.63.56-.58.74-.94.29-.74.3-1.15h-1.79c-.01.21-.06.4-.15.58s-.21.33-.36.46-.32.23-.52.3c-.19.07-.39.09-.6.1-.36-.01-.66-.08-.89-.23-.25-.16-.45-.37-.59-.62s-.25-.55-.3-.88-.08-.67-.08-1v-.27c0-.35.03-.68.08-1.01zM12 2C6.48 2 2 6.48 2 12s4.48 10 10 10 10-4.48 10-10S17.52 2 12 2zm0 18c-4.41 0-8-3.59-8-8s3.59-8 8-8 8 3.59 8 8-3.59 8-8 8z"></path>
</symbol>
<symbol id="m-credit_card" viewBox="0 0 24 24"><path d="M20 4H4c-1.11 0-1.99.89-1.99 2L2 18c0 1.11.89 2 2 2h16c1.11 0 2-.89 2-2V6c0-1.11-.89-2-2-2zm-1 14H5c-.55 0-1-.45-1-1v-5h16v5c0 .55-.45 1-1 1zm1-10H4V6h16v2z"></path>
</symbol>
<symbol id="m-radio_button_checked" viewBox="0 0 24 24"><path d="M12 2C6.48 2 2 6.48 2 12s4.48 10 10 10 10-4.48 10-10S17.52 2 12 2zm0 18c-4.42 0-8-3.58-8-8s3.58-8 8-8 8 3.58 8 8-3.58 8-8 8z"></path><circle cx="12" cy="12" r="5"></circle>
</symbol>
<symbol id="m-edit" viewBox="0 0 24 24"><path d="M3 17.46v3.04c0 .28.22.5.5.5h3.04c.13 0 .26-.05.35-.15L17.81 9.94l-3.75-3.75L3.15 17.1c-.1.1-.15.22-.15.36zM20.71 7.04a.996.996 0 0 0 0-1.41l-2.34-2.34a.996.996 0 0 0-1.41 0l-1.83 1.83 3.75 3.75 1.83-1.83z"></path>
</symbol>
<symbol id="m-mail" viewBox="0 0 24 24"><path d="M20 4H4c-1.1 0-2 .9-2 2v12c0 1.1.9 2 2 2h16c1.1 0 2-.9 2-2V6c0-1.1-.9-2-2-2zm-.4 4.25-6.54 4.09c-.65.41-1.47.41-2.12 0L4.4 8.25a.85.85 0 1 1 .9-1.44L12 11l6.7-4.19a.85.85 0 1 1 .9 1.44z"></path>
</symbol>
<symbol id="m-visibility_off" viewBox="0 0 24 24"><path d="M12 6.5c2.76 0 5 2.24 5 5 0 .51-.1 1-.24 1.46l3.06 3.06c1.39-1.23 2.49-2.77 3.18-4.53C21.27 7.11 17 4 12 4c-1.27 0-2.49.2-3.64.57l2.17 2.17c.47-.14.96-.24 1.47-.24zM2.71 3.16a.996.996 0 0 0 0 1.41l1.97 1.97A11.892 11.892 0 0 0 1 11.5C2.73 15.89 7 19 12 19c1.52 0 2.97-.3 4.31-.82l2.72 2.72a.996.996 0 1 0 1.41-1.41L4.13 3.16c-.39-.39-1.03-.39-1.42 0zM12 16.5c-2.76 0-5-2.24-5-5 0-.77.18-1.5.49-2.14l1.57 1.57c-.03.18-.06.37-.06.57 0 1.66 1.34 3 3 3 .2 0 .38-.03.57-.07L14.14 16c-.65.32-1.37.5-2.14.5zm2.97-5.33a2.97 2.97 0 0 0-2.64-2.64l2.64 2.64z"></path>
</symbol>
<symbol id="m-visibility" viewBox="0 0 24 24"><path d="M12 4C7 4 2.73 7.11 1 11.5 2.73 15.89 7 19 12 19s9.27-3.11 11-7.5C21.27 7.11 17 4 12 4zm0 12.5c-2.76 0-5-2.24-5-5s2.24-5 5-5 5 2.24 5 5-2.24 5-5 5zm0-8c-1.66 0-3 1.34-3 3s1.34 3 3 3 3-1.34 3-3-1.34-3-3-3z"></path>
</symbol>
<symbol id="m-description" viewBox="0 0 24 24"><path d="M14.59 2.59c-.38-.38-.89-.59-1.42-.59H6c-1.1 0-2 .9-2 2v16c0 1.1.89 2 1.99 2H18c1.1 0 2-.9 2-2V8.83c0-.53-.21-1.04-.59-1.41l-4.82-4.83zM15 18H9c-.55 0-1-.45-1-1s.45-1 1-1h6c.55 0 1 .45 1 1s-.45 1-1 1zm0-4H9c-.55 0-1-.45-1-1s.45-1 1-1h6c.55 0 1 .45 1 1s-.45 1-1 1zm-2-6V3.5L18.5 9H14c-.55 0-1-.45-1-1z"></path>
</symbol>
<symbol id="m-sentiment_dissatisfied" viewBox="0 0 24 24"><circle cx="15.5" cy="9.5" r="1.5"></circle><circle cx="8.5" cy="9.5" r="1.5"></circle><path d="M11.99 2C6.47 2 2 6.48 2 12s4.47 10 9.99 10C17.52 22 22 17.52 22 12S17.52 2 11.99 2zM12 20c-4.42 0-8-3.58-8-8s3.58-8 8-8 8 3.58 8 8-3.58 8-8 8zm0-6c-1.9 0-3.63.97-4.65 2.58a.747.747 0 1 0 1.27.79c.74-1.18 2-1.88 3.38-1.88s2.64.7 3.38 1.88c.14.23.39.35.64.35.14 0 .27-.04.4-.11.35-.22.46-.68.24-1.03C15.63 14.96 13.9 14 12 14z"></path>
</symbol>
<symbol id="m-favorite_border" viewBox="0 0 24 24"><path d="M19.66 3.99c-2.64-1.8-5.9-.96-7.66 1.1-1.76-2.06-5.02-2.91-7.66-1.1-1.4.96-2.28 2.58-2.34 4.29-.14 3.88 3.3 6.99 8.55 11.76l.1.09c.76.69 1.93.69 2.69-.01l.11-.1c5.25-4.76 8.68-7.87 8.55-11.75-.06-1.7-.94-3.32-2.34-4.28zM12.1 18.55l-.1.1-.1-.1C7.14 14.24 4 11.39 4 8.5 4 6.5 5.5 5 7.5 5c1.54 0 3.04.99 3.57 2.36h1.87C13.46 5.99 14.96 5 16.5 5c2 0 3.5 1.5 3.5 3.5 0 2.89-3.14 5.74-7.9 10.05z"></path>
</symbol>
<symbol id="m-image" viewBox="0 0 24 24"><path d="M21 19V5c0-1.1-.9-2-2-2H5c-1.1 0-2 .9-2 2v14c0 1.1.9 2 2 2h14c1.1 0 2-.9 2-2zM8.9 13.98l2.1 2.53 3.1-3.99c.2-.26.6-.26.8.01l3.51 4.68a.5.5 0 0 1-.4.8H6.02c-.42 0-.65-.48-.39-.81L8.12 14c.19-.26.57-.27.78-.02z"></path>
</symbol>
<symbol id="m-list_alt" viewBox="0 0 24 24"><path d="M12 9h4c.55 0 1-.45 1-1s-.45-1-1-1h-4c-.55 0-1 .45-1 1s.45 1 1 1zm0 4h4c.55 0 1-.45 1-1s-.45-1-1-1h-4c-.55 0-1 .45-1 1s.45 1 1 1zm0 4h4c.55 0 1-.45 1-1s-.45-1-1-1h-4c-.55 0-1 .45-1 1s.45 1 1 1zM7 7h2v2H7zm0 4h2v2H7zm0 4h2v2H7zM20 3H4c-.55 0-1 .45-1 1v16c0 .55.45 1 1 1h16c.55 0 1-.45 1-1V4c0-.55-.45-1-1-1zm-1 16H5V5h14v14z"></path>
</symbol>
<symbol id="m-sentiment_neutral" viewBox="0 0 24 24"><path d="M9.75 15.5h4.5c.41 0 .75-.34.75-.75s-.34-.75-.75-.75h-4.5c-.41 0-.75.34-.75.75s.34.75.75.75z"></path><circle cx="15.5" cy="9.5" r="1.5"></circle><circle cx="8.5" cy="9.5" r="1.5"></circle><path d="M11.99 2C6.47 2 2 6.48 2 12s4.47 10 9.99 10C17.52 22 22 17.52 22 12S17.52 2 11.99 2zM12 20c-4.42 0-8-3.58-8-8s3.58-8 8-8 8 3.58 8 8-3.58 8-8 8z"></path>
</symbol>
<symbol id="m-dark_mode" viewBox="0 0 24 24"><path d="M11.01 3.05C6.51 3.54 3 7.36 3 12a9 9 0 0 0 9 9c4.63 0 8.45-3.5 8.95-8 .09-.79-.78-1.42-1.54-.95A5.403 5.403 0 0 1 11.1 7.5c0-1.06.31-2.06.84-2.89.45-.67-.04-1.63-.93-1.56z"></path>
</symbol>
<symbol id="m-sentiment_satisfied" viewBox="0 0 24 24"><circle cx="15.5" cy="9.5" r="1.5"></circle><circle cx="8.5" cy="9.5" r="1.5"></circle><path d="M11.99 2C6.47 2 2 6.48 2 12s4.47 10 9.99 10C17.52 22 22 17.52 22 12S17.52 2 11.99 2zM12 20c-4.42 0-8-3.58-8-8s3.58-8 8-8 8 3.58 8 8-3.58 8-8 8zm4.41-6.11a.745.745 0 0 0-1.03.24C14.64 15.3 13.38 16 12 16s-2.64-.7-3.38-1.88a.747.747 0 1 0-1.27.79C8.37 16.54 10.1 17.5 12 17.5s3.63-.97 4.65-2.58c.22-.35.11-.81-.24-1.03z"></path>
</symbol>
<symbol id="m-square" viewBox="0 0 24 24"><path d="M3 5v14c0 1.1.9 2 2 2h14c1.1 0 2-.9 2-2V5c0-1.1-.9-2-2-2H5c-1.1 0-2 .9-2 2z"></path>
</symbol>
<symbol id="m-star_outline" viewBox="0 0 24 24"><path d="m19.65 9.04-4.84-.42-1.89-4.45c-.34-.81-1.5-.81-1.84 0L9.19 8.63l-4.83.41c-.88.07-1.24 1.17-.57 1.75l3.67 3.18-1.1 4.72c-.2.86.73 1.54 1.49 1.08l4.15-2.5 4.15 2.51c.76.46 1.69-.22 1.49-1.08l-1.1-4.73 3.67-3.18c.67-.58.32-1.68-.56-1.75zM12 15.4l-3.76 2.27 1-4.28-3.32-2.88 4.38-.38L12 6.1l1.71 4.04 4.38.38-3.32 2.88 1 4.28L12 15.4z"></path>
</symbol>
<symbol id="m-light_mode" viewBox="0 0 24 24"><path d="M12 7c-2.76 0-5 2.24-5 5s2.24 5 5 5 5-2.24 5-5-2.24-5-5-5zM2 13h2c.55 0 1-.45 1-1s-.45-1-1-1H2c-.55 0-1 .45-1 1s.45 1 1 1zm18 0h2c.55 0 1-.45 1-1s-.45-1-1-1h-2c-.55 0-1 .45-1 1s.45 1 1 1zM11 2v2c0 .55.45 1 1 1s1-.45 1-1V2c0-.55-.45-1-1-1s-1 .45-1 1zm0 18v2c0 .55.45 1 1 1s1-.45 1-1v-2c0-.55-.45-1-1-1s-1 .45-1 1zM5.99 4.58a.996.996 0 0 0-1.41 0 .996.996 0 0 0 0 1.41l1.06 1.06c.39.39 1.03.39 1.41 0s.39-1.03 0-1.41L5.99 4.58zm12.37 12.37a.996.996 0 0 0-1.41 0 .996.996 0 0 0 0 1.41l1.06 1.06c.39.39 1.03.39 1.41 0a.996.996 0 0 0 0-1.41l-1.06-1.06zm1.06-10.96a.996.996 0 0 0 0-1.41.996.996 0 0 0-1.41 0l-1.06 1.06c-.39.39-.39 1.03 0 1.41s1.03.39 1.41 0l1.06-1.06zM7.05 18.36a.996.996 0 0 0 0-1.41.996.996 0 0 0-1.41 0l-1.06 1.06c-.39.39-.39 1.03 0 1.41s1.03.39 1.41 0l1.06-1.06z"></path>
</symbol>
<symbol id="m-thumb_down" viewBox="0 0 24 24"><path d="m10.88 21.94 5.53-5.54c.37-.37.58-.88.58-1.41V5c0-1.1-.9-2-2-2H6c-.8 0-1.52.48-1.83 1.21L.91 11.82C.06 13.8 1.51 16 3.66 16h5.65l-.95 4.58c-.1.5.05 1.01.41 1.37.59.58 1.53.58 2.11-.01zM21 3c-1.1 0-2 .9-2 2v8c0 1.1.9 2 2 2s2-.9 2-2V5c0-1.1-.9-2-2-2z"></path>
</symbol>
<symbol id="m-thumb_up" viewBox="0 0 24 24"><path d="M13.12 2.06 7.58 7.6c-.37.37-.58.88-.58 1.41V19c0 1.1.9 2 2 2h9c.8 0 1.52-.48 1.84-1.21l3.26-7.61C23.94 10.2 22.49 8 20.34 8h-5.65l.95-4.58c.1-.5-.05-1.01-.41-1.37-.59-.58-1.53-.58-2.11.01zM3 21c1.1 0 2-.9 2-2v-8c0-1.1-.9-2-2-2s-2 .9-2 2v8c0 1.1.9 2 2 2z"></path>
</symbol>
<symbol id="m-delete" viewBox="0 0 24 24"><path d="M6 19c0 1.1.9 2 2 2h8c1.1 0 2-.9 2-2V9c0-1.1-.9-2-2-2H8c-1.1 0-2 .9-2 2v10zM18 4h-2.5l-.71-.71c-.18-.18-.44-.29-.7-.29H9.91c-.26 0-.52.11-.7.29L8.5 4H6c-.55 0-1 .45-1 1s.45 1 1 1h12c.55 0 1-.45 1-1s-.45-1-1-1z"></path>
</symbol>
<symbol id="m-fast_rewind" viewBox="0 0 24 24"><path d="M11 16.07V7.93c0-.81-.91-1.28-1.58-.82l-5.77 4.07c-.56.4-.56 1.24 0 1.63l5.77 4.07c.67.47 1.58 0 1.58-.81zm1.66-3.25 5.77 4.07c.66.47 1.58-.01 1.58-.82V7.93c0-.81-.91-1.28-1.58-.82l-5.77 4.07a1 1 0 0 0 0 1.64z"></path>
</symbol>
<symbol id="m-fast_forward" viewBox="0 0 24 24"><path d="m5.58 16.89 5.77-4.07c.56-.4.56-1.24 0-1.63L5.58 7.11C4.91 6.65 4 7.12 4 7.93v8.14c0 .81.91 1.28 1.58.82zM13 7.93v8.14c0 .81.91 1.28 1.58.82l5.77-4.07c.56-.4.56-1.24 0-1.63l-5.77-4.07c-.67-.47-1.58 0-1.58.81z"></path>
</symbol>
<symbol id="m-description" viewBox="0 0 24 24"><path d="M14.59 2.59c-.38-.38-.89-.59-1.42-.59H6c-1.1 0-2 .9-2 2v16c0 1.1.89 2 1.99 2H18c1.1 0 2-.9 2-2V8.83c0-.53-.21-1.04-.59-1.41l-4.82-4.83zM15 18H9c-.55 0-1-.45-1-1s.45-1 1-1h6c.55 0 1 .45 1 1s-.45 1-1 1zm0-4H9c-.55 0-1-.45-1-1s.45-1 1-1h6c.55 0 1 .45 1 1s-.45 1-1 1zm-2-6V3.5L18.5 9H14c-.55 0-1-.45-1-1z"></path>
</symbol>
<symbol id="m-audio_file" viewBox="0 0 24 24"><path d="m19.41 7.41-4.83-4.83c-.37-.37-.88-.58-1.41-.58H6c-1.1 0-1.99.9-1.99 2L4 20c0 1.1.89 2 1.99 2H18c1.1 0 2-.9 2-2V8.83c0-.53-.21-1.04-.59-1.42zM15 13h-2v3.61c0 1.28-1 2.41-2.28 2.39a2.259 2.259 0 0 1-2.13-2.91c.21-.72.8-1.31 1.53-1.51.7-.19 1.36-.05 1.88.29V12c0-.55.45-1 1-1h2c.55 0 1 .45 1 1s-.45 1-1 1zm-1-4c-.55 0-1-.45-1-1V3.5L18.5 9H14z"></path>
</symbol>
<symbol id="m-insert_photo" viewBox="0 0 24 24"><path d="M21 19V5c0-1.1-.9-2-2-2H5c-1.1 0-2 .9-2 2v14c0 1.1.9 2 2 2h14c1.1 0 2-.9 2-2zM8.9 13.98l2.1 2.53 3.1-3.99c.2-.26.6-.26.8.01l3.51 4.68a.5.5 0 0 1-.4.8H6.02c-.42 0-.65-.48-.39-.81L8.12 14c.19-.26.57-.27.78-.02z"></path>
</symbol>
<symbol id="m-receipt_long" viewBox="0 0 24 24"><path d="M14 9h-4c-.55 0-1-.45-1-1s.45-1 1-1h4c.55 0 1 .45 1 1s-.45 1-1 1zm0 3h-4c-.55 0-1-.45-1-1s.45-1 1-1h4c.55 0 1 .45 1 1s-.45 1-1 1z"></path><path d="M19.5 3.5 18 2l-1.5 1.5L15 2l-1.5 1.5L12 2l-1.5 1.5L9 2 7.5 3.5 6 2v14H4c-.55 0-1 .45-1 1v2c0 1.66 1.34 3 3 3h12c1.66 0 3-1.34 3-3V2l-1.5 1.5zM15 20H6c-.55 0-1-.45-1-1v-1h10v2zm4-1c0 .55-.45 1-1 1s-1-.45-1-1v-2c0-.55-.45-1-1-1H8V5h11v14z"></path><circle cx="17" cy="8" r="1"></circle><circle cx="17" cy="11" r="1"></circle>
</symbol>
<symbol id="m-video_file" viewBox="0 0 24 24"><path d="M13.17 2H6.01a2 2 0 0 0-2 2L4 20c0 1.1.9 2 2 2h12c1.1 0 2-.9 2-2V8.83c0-.53-.21-1.04-.59-1.41l-4.83-4.83c-.37-.38-.88-.59-1.41-.59zM13 8V3.5L18.5 9H14c-.55 0-1-.45-1-1zm1 6 1.27-.67c.33-.18.73.06.73.44v2.46c0 .38-.4.62-.73.44L14 16v1c0 .55-.45 1-1 1H9c-.55 0-1-.45-1-1v-4c0-.55.45-1 1-1h4c.55 0 1 .45 1 1v1z"></path>
</symbol>
<symbol id="m-insert_drive_file" viewBox="0 0 24 24"><path d="M6 2c-1.1 0-1.99.9-1.99 2L4 20c0 1.1.89 2 1.99 2H18c1.1 0 2-.9 2-2V8.83c0-.53-.21-1.04-.59-1.41l-4.83-4.83c-.37-.38-.88-.59-1.41-.59H6zm7 6V3.5L18.5 9H14c-.55 0-1-.45-1-1z"></path>
</symbol>
<symbol id="m-filter_alt" viewBox="0 0 24 24"><path d="M4.25 5.61C6.57 8.59 10 13 10 13v5c0 1.1.9 2 2 2s2-.9 2-2v-5s3.43-4.41 5.75-7.39c.51-.66.04-1.61-.8-1.61H5.04c-.83 0-1.3.95-.79 1.61z"></path>
</symbol>
<symbol id="m-flag" viewBox="0 0 24 24"><path d="m14.4 6-.24-1.2c-.09-.46-.5-.8-.98-.8H6c-.55 0-1 .45-1 1v15c0 .55.45 1 1 1s1-.45 1-1v-6h5.6l.24 1.2c.09.47.5.8.98.8H19c.55 0 1-.45 1-1V7c0-.55-.45-1-1-1h-4.6z"></path>
</symbol>
<symbol id="m-folder_open" viewBox="0 0 24 24"><path d="M20 6h-8l-1.41-1.41C10.21 4.21 9.7 4 9.17 4H4c-1.1 0-1.99.9-1.99 2L2 18c0 1.1.9 2 2 2h16c1.1 0 2-.9 2-2V8c0-1.1-.9-2-2-2zm-1 12H5c-.55 0-1-.45-1-1V9c0-.55.45-1 1-1h14c.55 0 1 .45 1 1v8c0 .55-.45 1-1 1z"></path>
</symbol>
<symbol id="m-folder" viewBox="0 0 24 24"><path d="M10.59 4.59C10.21 4.21 9.7 4 9.17 4H4c-1.1 0-1.99.9-1.99 2L2 18c0 1.1.9 2 2 2h16c1.1 0 2-.9 2-2V8c0-1.1-.9-2-2-2h-8l-1.41-1.41z"></path>
</symbol>
<symbol id="m-fast_forward" viewBox="0 0 24 24"><path d="m5.58 16.89 5.77-4.07c.56-.4.56-1.24 0-1.63L5.58 7.11C4.91 6.65 4 7.12 4 7.93v8.14c0 .81.91 1.28 1.58.82zM13 7.93v8.14c0 .81.91 1.28 1.58.82l5.77-4.07c.56-.4.56-1.24 0-1.63l-5.77-4.07c-.67-.47-1.58 0-1.58.81z"></path>
</symbol>
<symbol id="m-gavel" viewBox="0 0 24 24"><path d="M2 21h10c.55 0 1 .45 1 1s-.45 1-1 1H2c-.55 0-1-.45-1-1s.45-1 1-1zM5.24 8.07l2.83-2.83L20.8 17.97c.78.78.78 2.05 0 2.83-.78.78-2.05.78-2.83 0L5.24 8.07zm8.49-5.66 2.83 2.83c.78.78.78 2.05 0 2.83l-1.42 1.42-5.65-5.66 1.41-1.41c.78-.79 2.05-.79 2.83-.01zm-9.9 7.07 5.66 5.66-1.41 1.41c-.78.78-2.05.78-2.83 0l-2.83-2.83c-.78-.78-.78-2.05 0-2.83l1.41-1.41z"></path>
</symbol>
<symbol id="m-public" viewBox="0 0 24 24"><path d="M12 2C6.48 2 2 6.48 2 12s4.48 10 10 10 10-4.48 10-10S17.52 2 12 2zm-1 17.93c-3.95-.49-7-3.85-7-7.93 0-.62.08-1.21.21-1.79L9 15v1c0 1.1.9 2 2 2v1.93zm6.9-2.54c-.26-.81-1-1.39-1.9-1.39h-1v-3c0-.55-.45-1-1-1H8v-2h2c.55 0 1-.45 1-1V7h2c1.1 0 2-.9 2-2v-.41c2.93 1.19 5 4.06 5 7.41 0 2.08-.8 3.97-2.1 5.39z"></path>
</symbol>
<symbol id="m-language" viewBox="0 0 24 24"><path d="M11.99 2C6.47 2 2 6.48 2 12s4.47 10 9.99 10C17.52 22 22 17.52 22 12S17.52 2 11.99 2zm6.93 6h-2.95a15.65 15.65 0 0 0-1.38-3.56A8.03 8.03 0 0 1 18.92 8zM12 4.04c.83 1.2 1.48 2.53 1.91 3.96h-3.82c.43-1.43 1.08-2.76 1.91-3.96zM4.26 14C4.1 13.36 4 12.69 4 12s.1-1.36.26-2h3.38c-.08.66-.14 1.32-.14 2s.06 1.34.14 2H4.26zm.82 2h2.95c.32 1.25.78 2.45 1.38 3.56A7.987 7.987 0 0 1 5.08 16zm2.95-8H5.08a7.987 7.987 0 0 1 4.33-3.56A15.65 15.65 0 0 0 8.03 8zM12 19.96c-.83-1.2-1.48-2.53-1.91-3.96h3.82c-.43 1.43-1.08 2.76-1.91 3.96zM14.34 14H9.66c-.09-.66-.16-1.32-.16-2s.07-1.35.16-2h4.68c.09.65.16 1.32.16 2s-.07 1.34-.16 2zm.25 5.56c.6-1.11 1.06-2.31 1.38-3.56h2.95a8.03 8.03 0 0 1-4.33 3.56zM16.36 14c.08-.66.14-1.32.14-2s-.06-1.34-.14-2h3.38c.16.64.26 1.31.26 2s-.1 1.36-.26 2h-3.38z"></path>
</symbol>
<symbol id="m-arrow_right_alt" viewBox="0 0 24 24"><path d="M16.01 11H5c-.55 0-1 .45-1 1s.45 1 1 1h11.01v1.79c0 .45.54.67.85.35l2.78-2.79c.19-.2.19-.51 0-.71l-2.78-2.79c-.31-.32-.85-.09-.85.35V11z"></path>
</symbol>
<symbol id="m-handshake" viewBox="0 0 24 24"><path d="M16.48 10.41c-.39.39-1.04.39-1.43 0l-4.47-4.46-7.05 7.04-.66-.63a3 3 0 0 1 0-4.24l4.24-4.24a3 3 0 0 1 4.24 0L16.48 9c.39.39.39 1.02 0 1.41zm.7-2.12c.78.78.78 2.05 0 2.83-1.27 1.27-2.61.22-2.83 0l-3.76-3.76-5.57 5.57a.996.996 0 0 0 0 1.41c.39.39 1.02.39 1.42 0l4.62-4.62.71.71-4.62 4.62a.996.996 0 0 0 0 1.41c.39.39 1.02.39 1.42 0l4.62-4.62.71.71-4.62 4.62a.996.996 0 1 0 1.41 1.41l4.62-4.62.71.71-4.62 4.62a.996.996 0 1 0 1.41 1.41l8.32-8.34a3 3 0 0 0 0-4.24l-4.24-4.24a3.001 3.001 0 0 0-4.18-.06l4.47 4.47z"></path>
</symbol>
<symbol id="m-tag" viewBox="0 0 24 24"><path d="M20 9c0-.55-.45-1-1-1h-3V5c0-.55-.45-1-1-1s-1 .45-1 1v3h-4V5c0-.55-.45-1-1-1s-1 .45-1 1v3H5c-.55 0-1 .45-1 1s.45 1 1 1h3v4H5c-.55 0-1 .45-1 1s.45 1 1 1h3v3c0 .55.45 1 1 1s1-.45 1-1v-3h4v3c0 .55.45 1 1 1s1-.45 1-1v-3h3c.55 0 1-.45 1-1s-.45-1-1-1h-3v-4h3c.55 0 1-.45 1-1zm-6 5h-4v-4h4v4z"></path>
</symbol>
<symbol id="m-favorite" viewBox="0 0 24 24"><path d="M13.35 20.13c-.76.69-1.93.69-2.69-.01l-.11-.1C5.3 15.27 1.87 12.16 2 8.28c.06-1.7.93-3.33 2.34-4.29 2.64-1.8 5.9-.96 7.66 1.1 1.76-2.06 5.02-2.91 7.66-1.1 1.41.96 2.28 2.59 2.34 4.29.14 3.88-3.3 6.99-8.55 11.76l-.1.09z"></path>
</symbol>
<symbol id="m-history" viewBox="0 0 24 24"><path d="M13.26 3C8.17 2.86 4 6.95 4 12H2.21c-.45 0-.67.54-.35.85l2.79 2.8c.2.2.51.2.71 0l2.79-2.8a.5.5 0 0 0-.36-.85H6c0-3.9 3.18-7.05 7.1-7 3.72.05 6.85 3.18 6.9 6.9.05 3.91-3.1 7.1-7 7.1-1.61 0-3.1-.55-4.28-1.48a.994.994 0 0 0-1.32.08c-.42.42-.39 1.13.08 1.49A8.858 8.858 0 0 0 13 21c5.05 0 9.14-4.17 9-9.26-.13-4.69-4.05-8.61-8.74-8.74zm-.51 5c-.41 0-.75.34-.75.75v3.68c0 .35.19.68.49.86l3.12 1.85c.36.21.82.09 1.03-.26.21-.36.09-.82-.26-1.03l-2.88-1.71v-3.4c0-.4-.34-.74-.75-.74z"></path>
</symbol>
<symbol id="m-home" viewBox="0 0 24 24"><path d="M10 19v-5h4v5c0 .55.45 1 1 1h3c.55 0 1-.45 1-1v-7h1.7c.46 0 .68-.57.33-.87L12.67 3.6c-.38-.34-.96-.34-1.34 0l-8.36 7.53c-.34.3-.13.87.33.87H5v7c0 .55.45 1 1 1h3c.55 0 1-.45 1-1z"></path>
</symbol>
<symbol id="m-hourglass_top" viewBox="0 0 24 24"><path d="M8 2c-1.1 0-2 .9-2 2l.01 3.18c0 .53.21 1.03.58 1.41L10 12l-3.41 3.43c-.37.37-.58.88-.58 1.41L6 20c0 1.1.9 2 2 2h8c1.1 0 2-.9 2-2v-3.16c0-.53-.21-1.04-.58-1.41L14 12l3.41-3.4c.38-.38.59-.89.59-1.42V4c0-1.1-.9-2-2-2H8zm8 14.91V19c0 .55-.45 1-1 1H9c-.55 0-1-.45-1-1v-2.09c0-.27.11-.52.29-.71L12 12.5l3.71 3.71c.18.18.29.44.29.7z"></path>
</symbol>
<symbol id="m-badge" viewBox="0 0 24 24"><path d="M20 7h-5V4c0-1.1-.9-2-2-2h-2c-1.1 0-2 .9-2 2v3H4c-1.1 0-2 .9-2 2v11c0 1.1.9 2 2 2h16c1.1 0 2-.9 2-2V9c0-1.1-.9-2-2-2zM9 12c.83 0 1.5.67 1.5 1.5S9.83 15 9 15s-1.5-.67-1.5-1.5S8.17 12 9 12zm3 6H6v-.43c0-.6.36-1.15.92-1.39.64-.28 1.34-.43 2.08-.43s1.44.15 2.08.43c.55.24.92.78.92 1.39V18zm1-9h-2V4h2v5zm4.25 7.5h-2.5c-.41 0-.75-.34-.75-.75s.34-.75.75-.75h2.5c.41 0 .75.34.75.75s-.34.75-.75.75zm0-3h-2.5c-.41 0-.75-.34-.75-.75s.34-.75.75-.75h2.5c.41 0 .75.34.75.75s-.34.75-.75.75z"></path>
</symbol>
<symbol id="m-panorama" viewBox="0 0 24 24"><path d="M23 18V6c0-1.1-.9-2-2-2H3c-1.1 0-2 .9-2 2v12c0 1.1.9 2 2 2h18c1.1 0 2-.9 2-2zM8.9 12.98l2.1 2.53 3.1-3.99c.2-.26.6-.26.8.01l3.51 4.68a.5.5 0 0 1-.4.8H6.02c-.42 0-.65-.48-.39-.81L8.12 13c.19-.26.57-.27.78-.02z"></path>
</symbol>
<symbol id="m-inbox" viewBox="0 0 24 24"><path d="M19 3H5c-1.1 0-2 .9-2 2v14c0 1.1.9 2 2 2h14c1.1 0 2-.9 2-2V5c0-1.1-.9-2-2-2zm0 2v9h-3.56c-.36 0-.68.19-.86.5-.52.9-1.47 1.5-2.58 1.5s-2.06-.6-2.58-1.5a1 1 0 0 0-.86-.5H5V5h14z"></path>
</symbol>
<symbol id="m-info" viewBox="0 0 24 24"><path d="M12 2C6.48 2 2 6.48 2 12s4.48 10 10 10 10-4.48 10-10S17.52 2 12 2zm0 15c-.55 0-1-.45-1-1v-4c0-.55.45-1 1-1s1 .45 1 1v4c0 .55-.45 1-1 1zm1-8h-2V7h2v2z"></path>
</symbol>
<symbol id="m-format_italic" viewBox="0 0 24 24"><path d="M10 5.5c0 .83.67 1.5 1.5 1.5h.71l-3.42 8H7.5c-.83 0-1.5.67-1.5 1.5S6.67 18 7.5 18h5c.83 0 1.5-.67 1.5-1.5s-.67-1.5-1.5-1.5h-.71l3.42-8h1.29c.83 0 1.5-.67 1.5-1.5S17.33 4 16.5 4h-5c-.83 0-1.5.67-1.5 1.5z"></path>
</symbol>
<symbol id="m-key" viewBox="0 0 24 24"><path d="M20.59 10h-7.94a6.004 6.004 0 0 0-6.88-3.88c-2.29.46-4.15 2.3-4.63 4.58A6.002 6.002 0 0 0 7 18a5.99 5.99 0 0 0 5.65-4H13l1.29 1.29c.39.39 1.02.39 1.41 0L17 14l1.29 1.29c.39.39 1.03.39 1.42 0l2.59-2.61a.999.999 0 0 0-.01-1.42l-.99-.97c-.2-.19-.45-.29-.71-.29zM7 15c-1.65 0-3-1.35-3-3s1.35-3 3-3 3 1.35 3 3-1.35 3-3 3z"></path>
</symbol>
<symbol id="m-keyboard" viewBox="0 0 24 24"><path d="M20 5H4c-1.1 0-1.99.9-1.99 2L2 17c0 1.1.9 2 2 2h16c1.1 0 2-.9 2-2V7c0-1.1-.9-2-2-2zm-9 3h2v2h-2V8zm0 3h2v2h-2v-2zM8 8h2v2H8V8zm0 3h2v2H8v-2zm-1 2H5v-2h2v2zm0-3H5V8h2v2zm8 7H9c-.55 0-1-.45-1-1s.45-1 1-1h6c.55 0 1 .45 1 1s-.45 1-1 1zm1-4h-2v-2h2v2zm0-3h-2V8h2v2zm3 3h-2v-2h2v2zm0-3h-2V8h2v2z"></path>
</symbol>
<symbol id="m-layers" viewBox="0 0 24 24"><path d="M12.6 18.06c-.36.28-.87.28-1.23 0l-6.15-4.78a.991.991 0 0 0-1.22 0 .997.997 0 0 0 0 1.57l6.76 5.26c.72.56 1.73.56 2.46 0l6.76-5.26c.51-.4.51-1.17 0-1.57l-.01-.01a.991.991 0 0 0-1.22 0l-6.15 4.79zm.63-3.02 6.76-5.26c.51-.4.51-1.18 0-1.58l-6.76-5.26c-.72-.56-1.73-.56-2.46 0L4.01 8.21c-.51.4-.51 1.18 0 1.58l6.76 5.26c.72.56 1.74.56 2.46-.01z"></path>
</symbol>
<symbol id="m-link" viewBox="0 0 24 24"><path d="M17 7h-3c-.55 0-1 .45-1 1s.45 1 1 1h3c1.65 0 3 1.35 3 3s-1.35 3-3 3h-3c-.55 0-1 .45-1 1s.45 1 1 1h3c2.76 0 5-2.24 5-5s-2.24-5-5-5zm-9 5c0 .55.45 1 1 1h6c.55 0 1-.45 1-1s-.45-1-1-1H9c-.55 0-1 .45-1 1zm2 3H7c-1.65 0-3-1.35-3-3s1.35-3 3-3h3c.55 0 1-.45 1-1s-.45-1-1-1H7c-2.76 0-5 2.24-5 5s2.24 5 5 5h3c.55 0 1-.45 1-1s-.45-1-1-1z"></path>
</symbol>
<symbol id="m-format_list_numbered" viewBox="0 0 24 24"><path d="M8 7h12c.55 0 1-.45 1-1s-.45-1-1-1H8c-.55 0-1 .45-1 1s.45 1 1 1zm12 10H8c-.55 0-1 .45-1 1s.45 1 1 1h12c.55 0 1-.45 1-1s-.45-1-1-1zm0-6H8c-.55 0-1 .45-1 1s.45 1 1 1h12c.55 0 1-.45 1-1s-.45-1-1-1zM4.5 16h-2c-.28 0-.5.22-.5.5s.22.5.5.5H4v.5h-.5c-.28 0-.5.22-.5.5s.22.5.5.5H4v.5H2.5c-.28 0-.5.22-.5.5s.22.5.5.5h2c.28 0 .5-.22.5-.5v-3c0-.28-.22-.5-.5-.5zm-2-11H3v2.5c0 .28.22.5.5.5s.5-.22.5-.5v-3c0-.28-.22-.5-.5-.5h-1c-.28 0-.5.22-.5.5s.22.5.5.5zm2 5h-2c-.28 0-.5.22-.5.5s.22.5.5.5h1.3l-1.68 1.96a.49.49 0 0 0-.12.32v.22c0 .28.22.5.5.5h2c.28 0 .5-.22.5-.5s-.22-.5-.5-.5H3.2l1.68-1.96a.49.49 0 0 0 .12-.32v-.22c0-.28-.22-.5-.5-.5z"></path>
</symbol>
<symbol id="m-format_list_bulleted" viewBox="0 0 24 24"><path d="M4 10.5c-.83 0-1.5.67-1.5 1.5s.67 1.5 1.5 1.5 1.5-.67 1.5-1.5-.67-1.5-1.5-1.5zm0-6c-.83 0-1.5.67-1.5 1.5S3.17 7.5 4 7.5 5.5 6.83 5.5 6 4.83 4.5 4 4.5zm0 12c-.83 0-1.5.68-1.5 1.5s.68 1.5 1.5 1.5 1.5-.68 1.5-1.5-.67-1.5-1.5-1.5zM8 19h12c.55 0 1-.45 1-1s-.45-1-1-1H8c-.55 0-1 .45-1 1s.45 1 1 1zm0-6h12c.55 0 1-.45 1-1s-.45-1-1-1H8c-.55 0-1 .45-1 1s.45 1 1 1zM7 6c0 .55.45 1 1 1h12c.55 0 1-.45 1-1s-.45-1-1-1H8c-.55 0-1 .45-1 1z"></path>
</symbol>
<symbol id="m-list" viewBox="0 0 24 24"><path d="M4 13c.55 0 1-.45 1-1s-.45-1-1-1-1 .45-1 1 .45 1 1 1zm0 4c.55 0 1-.45 1-1s-.45-1-1-1-1 .45-1 1 .45 1 1 1zm0-8c.55 0 1-.45 1-1s-.45-1-1-1-1 .45-1 1 .45 1 1 1zm4 4h12c.55 0 1-.45 1-1s-.45-1-1-1H8c-.55 0-1 .45-1 1s.45 1 1 1zm0 4h12c.55 0 1-.45 1-1s-.45-1-1-1H8c-.55 0-1 .45-1 1s.45 1 1 1zM7 8c0 .55.45 1 1 1h12c.55 0 1-.45 1-1s-.45-1-1-1H8c-.55 0-1 .45-1 1zm-3 5c.55 0 1-.45 1-1s-.45-1-1-1-1 .45-1 1 .45 1 1 1zm0 4c.55 0 1-.45 1-1s-.45-1-1-1-1 .45-1 1 .45 1 1 1zm0-8c.55 0 1-.45 1-1s-.45-1-1-1-1 .45-1 1 .45 1 1 1zm4 4h12c.55 0 1-.45 1-1s-.45-1-1-1H8c-.55 0-1 .45-1 1s.45 1 1 1zm0 4h12c.55 0 1-.45 1-1s-.45-1-1-1H8c-.55 0-1 .45-1 1s.45 1 1 1zM7 8c0 .55.45 1 1 1h12c.55 0 1-.45 1-1s-.45-1-1-1H8c-.55 0-1 .45-1 1z"></path>
</symbol>
<symbol id="m-lock" viewBox="0 0 24 24"><path d="M18 8h-1V6c0-2.76-2.24-5-5-5S7 3.24 7 6v2H6c-1.1 0-2 .9-2 2v10c0 1.1.9 2 2 2h12c1.1 0 2-.9 2-2V10c0-1.1-.9-2-2-2zm-6 9c-1.1 0-2-.9-2-2s.9-2 2-2 2 .9 2 2-.9 2-2 2zM9 8V6c0-1.66 1.34-3 3-3s3 1.34 3 3v2H9z"></path>
</symbol>
<symbol id="m-auto_fix_normal" viewBox="0 0 24 24"><path d="m20.45 6 .49-1.06L22 4.45a.5.5 0 0 0 0-.91l-1.06-.49L20.45 2a.5.5 0 0 0-.91 0l-.49 1.06-1.05.49a.5.5 0 0 0 0 .91l1.06.49.49 1.05c.17.39.73.39.9 0zm-2.74 3.12-2.83-2.83a.996.996 0 0 0-1.41 0L2.29 17.46a.996.996 0 0 0 0 1.41l2.83 2.83c.39.39 1.02.39 1.41 0L17.7 10.53c.4-.38.4-1.02.01-1.41zm-3.5 2.09L12.8 9.8l1.38-1.38 1.41 1.41-1.38 1.38z"></path>
</symbol>
<symbol id="m-location_on" viewBox="0 0 24 24"><path d="M12 2c-4.2 0-8 3.22-8 8.2 0 3.18 2.45 6.92 7.34 11.23.38.33.95.33 1.33 0C17.55 17.12 20 13.38 20 10.2 20 5.22 16.2 2 12 2zm0 10c-1.1 0-2-.9-2-2s.9-2 2-2 2 .9 2 2-.9 2-2 2z"></path>
</symbol>
<symbol id="m-mic_off" viewBox="0 0 24 24"><path d="M15 10.6V5c0-1.66-1.34-3-3-3-1.54 0-2.79 1.16-2.96 2.65L15 10.6zm3.08.4c-.41 0-.77.3-.83.71-.05.32-.12.64-.22.93l1.27 1.27c.3-.6.52-1.25.63-1.94a.857.857 0 0 0-.85-.97zM3.71 3.56a.996.996 0 0 0 0 1.41L9 10.27v.43c0 1.19.6 2.32 1.63 2.91.75.43 1.41.44 2.02.31l1.66 1.66c-.71.33-1.5.52-2.31.52-2.54 0-4.88-1.77-5.25-4.39a.839.839 0 0 0-.83-.71c-.52 0-.92.46-.85.97.46 2.96 2.96 5.3 5.93 5.75V20c0 .55.45 1 1 1s1-.45 1-1v-2.28a7.13 7.13 0 0 0 2.55-.9l3.49 3.49a.996.996 0 1 0 1.41-1.41L5.12 3.56a.996.996 0 0 0-1.41 0z"></path>
</symbol>
<symbol id="m-remove_circle" viewBox="0 0 24 24"><path d="M12 2C6.48 2 2 6.48 2 12s4.48 10 10 10 10-4.48 10-10S17.52 2 12 2zm4 11H8c-.55 0-1-.45-1-1s.45-1 1-1h8c.55 0 1 .45 1 1s-.45 1-1 1z"></path>
</symbol>
<symbol id="m-remove" viewBox="0 0 24 24"><path d="M18 13H6c-.55 0-1-.45-1-1s.45-1 1-1h12c.55 0 1 .45 1 1s-.45 1-1 1z"></path>
</symbol>
<symbol id="m-phone_iphone" viewBox="0 0 24 24"><path d="M15.5 1h-8A2.5 2.5 0 0 0 5 3.5v17A2.5 2.5 0 0 0 7.5 23h8a2.5 2.5 0 0 0 2.5-2.5v-17A2.5 2.5 0 0 0 15.5 1zm-4 21c-.83 0-1.5-.67-1.5-1.5s.67-1.5 1.5-1.5 1.5.67 1.5 1.5-.67 1.5-1.5 1.5zm4.5-4H7V4h9v14z"></path>
</symbol>
<symbol id="m-dark_mode" viewBox="0 0 24 24"><path d="M11.01 3.05C6.51 3.54 3 7.36 3 12a9 9 0 0 0 9 9c4.63 0 8.45-3.5 8.95-8 .09-.79-.78-1.42-1.54-.95A5.403 5.403 0 0 1 11.1 7.5c0-1.06.31-2.06.84-2.89.45-.67-.04-1.63-.93-1.56z"></path>
</symbol>
<symbol id="m-schedule" viewBox="0 0 24 24"><path d="M11.99 2C6.47 2 2 6.48 2 12s4.47 10 9.99 10C17.52 22 22 17.52 22 12S17.52 2 11.99 2zM12 20c-4.42 0-8-3.58-8-8s3.58-8 8-8 8 3.58 8 8-3.58 8-8 8zm-.22-13h-.06c-.4 0-.72.32-.72.72v4.72c0 .35.18.68.49.86l4.15 2.49c.34.2.78.1.98-.24a.71.71 0 0 0-.25-.99l-3.87-2.3V7.72c0-.4-.32-.72-.72-.72z"></path>
</symbol>
<symbol id="m-format_quote" viewBox="0 0 24 24"><path d="M7.17 17c.51 0 .98-.29 1.2-.74l1.42-2.84c.14-.28.21-.58.21-.89V8c0-.55-.45-1-1-1H5c-.55 0-1 .45-1 1v4c0 .55.45 1 1 1h2l-1.03 2.06c-.45.89.2 1.94 1.2 1.94zm10 0c.51 0 .98-.29 1.2-.74l1.42-2.84c.14-.28.21-.58.21-.89V8c0-.55-.45-1-1-1h-4c-.55 0-1 .45-1 1v4c0 .55.45 1 1 1h2l-1.03 2.06c-.45.89.2 1.94 1.2 1.94z"></path>
</symbol>
<symbol id="m-edit" viewBox="0 0 24 24"><path d="M3 17.46v3.04c0 .28.22.5.5.5h3.04c.13 0 .26-.05.35-.15L17.81 9.94l-3.75-3.75L3.15 17.1c-.1.1-.15.22-.15.36zM20.71 7.04a.996.996 0 0 0 0-1.41l-2.34-2.34a.996.996 0 0 0-1.41 0l-1.83 1.83 3.75 3.75 1.83-1.83z"></path>
</symbol>
<symbol id="m-emoji_events" viewBox="0 0 24 24"><path d="M19 5h-2V4c0-.55-.45-1-1-1H8c-.55 0-1 .45-1 1v1H5c-1.1 0-2 .9-2 2v1c0 2.55 1.92 4.63 4.39 4.94A5.01 5.01 0 0 0 11 15.9V19H8c-.55 0-1 .45-1 1s.45 1 1 1h8c.55 0 1-.45 1-1s-.45-1-1-1h-3v-3.1a5.01 5.01 0 0 0 3.61-2.96C19.08 12.63 21 10.55 21 8V7c0-1.1-.9-2-2-2zM5 8V7h2v3.82C5.84 10.4 5 9.3 5 8zm14 0c0 1.3-.84 2.4-2 2.82V7h2v1z"></path>
</symbol>
<symbol id="m-group" viewBox="0 0 24 24"><path d="M16 11c1.66 0 2.99-1.34 2.99-3S17.66 5 16 5s-3 1.34-3 3 1.34 3 3 3zm-8 0c1.66 0 2.99-1.34 2.99-3S9.66 5 8 5 5 6.34 5 8s1.34 3 3 3zm0 2c-2.33 0-7 1.17-7 3.5V18c0 .55.45 1 1 1h12c.55 0 1-.45 1-1v-1.5c0-2.33-4.67-3.5-7-3.5zm8 0c-.29 0-.62.02-.97.05.02.01.03.03.04.04 1.14.83 1.93 1.94 1.93 3.41V18c0 .35-.07.69-.18 1H22c.55 0 1-.45 1-1v-1.5c0-2.33-4.67-3.5-7-3.5z"></path>
</symbol>
<symbol id="m-groups" viewBox="0 0 24 24"><path d="M12 12.75c1.63 0 3.07.39 4.24.9 1.08.48 1.76 1.56 1.76 2.73V17c0 .55-.45 1-1 1H7c-.55 0-1-.45-1-1v-.61c0-1.18.68-2.26 1.76-2.73 1.17-.52 2.61-.91 4.24-.91zM4 13c1.1 0 2-.9 2-2s-.9-2-2-2-2 .9-2 2 .9 2 2 2zm1.13 1.1c-.37-.06-.74-.1-1.13-.1-.99 0-1.93.21-2.78.58A2.01 2.01 0 0 0 0 16.43V17c0 .55.45 1 1 1h3.5v-1.61c0-.83.23-1.61.63-2.29zM20 13c1.1 0 2-.9 2-2s-.9-2-2-2-2 .9-2 2 .9 2 2 2zm4 3.43c0-.81-.48-1.53-1.22-1.85A6.95 6.95 0 0 0 20 14c-.39 0-.76.04-1.13.1.4.68.63 1.46.63 2.29V18H23c.55 0 1-.45 1-1v-.57zM12 6c1.66 0 3 1.34 3 3s-1.34 3-3 3-3-1.34-3-3 1.34-3 3-3z"></path>
</symbol>
<symbol id="m-mail" viewBox="0 0 24 24"><path d="M20 4H4c-1.1 0-2 .9-2 2v12c0 1.1.9 2 2 2h16c1.1 0 2-.9 2-2V6c0-1.1-.9-2-2-2zm-.4 4.25-6.54 4.09c-.65.41-1.47.41-2.12 0L4.4 8.25a.85.85 0 1 1 .9-1.44L12 11l6.7-4.19a.85.85 0 1 1 .9 1.44z"></path>
</symbol>
<symbol id="m-arrow_right_alt" viewBox="0 0 24 24"><path d="M16.01 11H5c-.55 0-1 .45-1 1s.45 1 1 1h11.01v1.79c0 .45.54.67.85.35l2.78-2.79c.19-.2.19-.51 0-.71l-2.78-2.79c-.31-.32-.85-.09-.85.35V11z"></path>
</symbol>
<symbol id="m-favorite" viewBox="0 0 24 24"><path d="M13.35 20.13c-.76.69-1.93.69-2.69-.01l-.11-.1C5.3 15.27 1.87 12.16 2 8.28c.06-1.7.93-3.33 2.34-4.29 2.64-1.8 5.9-.96 7.66 1.1 1.76-2.06 5.02-2.91 7.66-1.1 1.41.96 2.28 2.59 2.34 4.29.14 3.88-3.3 6.99-8.55 11.76l-.1.09z"></path>
</symbol>
<symbol id="m-favorite" viewBox="0 0 24 24"><path d="M13.35 20.13c-.76.69-1.93.69-2.69-.01l-.11-.1C5.3 15.27 1.87 12.16 2 8.28c.06-1.7.93-3.33 2.34-4.29 2.64-1.8 5.9-.96 7.66 1.1 1.76-2.06 5.02-2.91 7.66-1.1 1.41.96 2.28 2.59 2.34 4.29.14 3.88-3.3 6.99-8.55 11.76l-.1.09z"></path>
</symbol>
<symbol id="m-favorite" viewBox="0 0 24 24"><path d="M13.35 20.13c-.76.69-1.93.69-2.69-.01l-.11-.1C5.3 15.27 1.87 12.16 2 8.28c.06-1.7.93-3.33 2.34-4.29 2.64-1.8 5.9-.96 7.66 1.1 1.76-2.06 5.02-2.91 7.66-1.1 1.41.96 2.28 2.59 2.34 4.29.14 3.88-3.3 6.99-8.55 11.76l-.1.09z"></path>
</symbol>
<symbol id="m-favorite" viewBox="0 0 24 24"><path d="M13.35 20.13c-.76.69-1.93.69-2.69-.01l-.11-.1C5.3 15.27 1.87 12.16 2 8.28c.06-1.7.93-3.33 2.34-4.29 2.64-1.8 5.9-.96 7.66 1.1 1.76-2.06 5.02-2.91 7.66-1.1 1.41.96 2.28 2.59 2.34 4.29.14 3.88-3.3 6.99-8.55 11.76l-.1.09z"></path>
</symbol>
<symbol id="m-link" viewBox="0 0 24 24"><path d="M17 7h-3c-.55 0-1 .45-1 1s.45 1 1 1h3c1.65 0 3 1.35 3 3s-1.35 3-3 3h-3c-.55 0-1 .45-1 1s.45 1 1 1h3c2.76 0 5-2.24 5-5s-2.24-5-5-5zm-9 5c0 .55.45 1 1 1h6c.55 0 1-.45 1-1s-.45-1-1-1H9c-.55 0-1 .45-1 1zm2 3H7c-1.65 0-3-1.35-3-3s1.35-3 3-3h3c.55 0 1-.45 1-1s-.45-1-1-1H7c-2.76 0-5 2.24-5 5s2.24 5 5 5h3c.55 0 1-.45 1-1s-.45-1-1-1z"></path>
</symbol>
<symbol id="m-person_add" viewBox="0 0 24 24"><path d="M15 12c2.21 0 4-1.79 4-4s-1.79-4-4-4-4 1.79-4 4 1.79 4 4 4zm-9-2V8c0-.55-.45-1-1-1s-1 .45-1 1v2H2c-.55 0-1 .45-1 1s.45 1 1 1h2v2c0 .55.45 1 1 1s1-.45 1-1v-2h2c.55 0 1-.45 1-1s-.45-1-1-1H6zm9 4c-2.67 0-8 1.34-8 4v1c0 .55.45 1 1 1h14c.55 0 1-.45 1-1v-1c0-2.66-5.33-4-8-4z"></path>
</symbol>
<symbol id="m-groups" viewBox="0 0 24 24"><path d="M12 12.75c1.63 0 3.07.39 4.24.9 1.08.48 1.76 1.56 1.76 2.73V17c0 .55-.45 1-1 1H7c-.55 0-1-.45-1-1v-.61c0-1.18.68-2.26 1.76-2.73 1.17-.52 2.61-.91 4.24-.91zM4 13c1.1 0 2-.9 2-2s-.9-2-2-2-2 .9-2 2 .9 2 2 2zm1.13 1.1c-.37-.06-.74-.1-1.13-.1-.99 0-1.93.21-2.78.58A2.01 2.01 0 0 0 0 16.43V17c0 .55.45 1 1 1h3.5v-1.61c0-.83.23-1.61.63-2.29zM20 13c1.1 0 2-.9 2-2s-.9-2-2-2-2 .9-2 2 .9 2 2 2zm4 3.43c0-.81-.48-1.53-1.22-1.85A6.95 6.95 0 0 0 20 14c-.39 0-.76.04-1.13.1.4.68.63 1.46.63 2.29V18H23c.55 0 1-.45 1-1v-.57zM12 6c1.66 0 3 1.34 3 3s-1.34 3-3 3-3-1.34-3-3 1.34-3 3-3z"></path>
</symbol>
<symbol id="m-alternate_email" viewBox="0 0 24 24"><path d="M12.72 2.03A9.991 9.991 0 0 0 2.03 12.72C2.39 18.01 7.01 22 12.31 22H16c.55 0 1-.45 1-1s-.45-1-1-1h-3.67c-3.73 0-7.15-2.42-8.08-6.03-1.49-5.8 3.91-11.21 9.71-9.71C17.58 5.18 20 8.6 20 12.33v1.1c0 .79-.71 1.57-1.5 1.57s-1.5-.78-1.5-1.57v-1.25c0-2.51-1.78-4.77-4.26-5.12a5.008 5.008 0 0 0-5.66 5.87 4.996 4.996 0 0 0 3.72 3.94c1.84.43 3.59-.16 4.74-1.33.89 1.22 2.67 1.86 4.3 1.21 1.34-.53 2.16-1.9 2.16-3.34v-1.09c0-5.31-3.99-9.93-9.28-10.29zM12 15c-1.66 0-3-1.34-3-3s1.34-3 3-3 3 1.34 3 3-1.34 3-3 3z"></path>
</symbol>
<symbol id="m-logout" viewBox="0 0 24 24"><path d="M5 5h6c.55 0 1-.45 1-1s-.45-1-1-1H5c-1.1 0-2 .9-2 2v14c0 1.1.9 2 2 2h6c.55 0 1-.45 1-1s-.45-1-1-1H5V5z"></path><path d="m20.65 11.65-2.79-2.79a.501.501 0 0 0-.86.35V11h-7c-.55 0-1 .45-1 1s.45 1 1 1h7v1.79c0 .45.54.67.85.35l2.79-2.79c.2-.19.2-.51.01-.7z"></path>
</symbol>
<symbol id="m-check" viewBox="0 0 24 24"><path d="M9 16.17 5.53 12.7a.996.996 0 1 0-1.41 1.41l4.18 4.18c.39.39 1.02.39 1.41 0L20.29 7.71a.996.996 0 1 0-1.41-1.41L9 16.17z"></path>
</symbol>
<symbol id="m-notification_important" viewBox="0 0 24 24"><path d="M12 23c1.1 0 1.99-.89 1.99-1.99h-3.98c0 1.1.89 1.99 1.99 1.99zm8.29-4.71L19 17v-6c0-3.35-2.36-6.15-5.5-6.83V3c0-.83-.67-1.5-1.5-1.5s-1.5.67-1.5 1.5v1.17C7.36 4.85 5 7.65 5 11v6l-1.29 1.29c-.63.63-.19 1.71.7 1.71h15.17c.9 0 1.34-1.08.71-1.71zM13 16h-2v-2h2v2zm0-5c0 .55-.45 1-1 1s-1-.45-1-1V9c0-.55.45-1 1-1s1 .45 1 1v2z"></path>
</symbol>
<symbol id="m-mail" viewBox="0 0 24 24"><path d="M20 4H4c-1.1 0-2 .9-2 2v12c0 1.1.9 2 2 2h16c1.1 0 2-.9 2-2V6c0-1.1-.9-2-2-2zm-.4 4.25-6.54 4.09c-.65.41-1.47.41-2.12 0L4.4 8.25a.85.85 0 1 1 .9-1.44L12 11l6.7-4.19a.85.85 0 1 1 .9 1.44z"></path>
</symbol>
<symbol id="m-format_quote" viewBox="0 0 24 24"><path d="M7.17 17c.51 0 .98-.29 1.2-.74l1.42-2.84c.14-.28.21-.58.21-.89V8c0-.55-.45-1-1-1H5c-.55 0-1 .45-1 1v4c0 .55.45 1 1 1h2l-1.03 2.06c-.45.89.2 1.94 1.2 1.94zm10 0c.51 0 .98-.29 1.2-.74l1.42-2.84c.14-.28.21-.58.21-.89V8c0-.55-.45-1-1-1h-4c-.55 0-1 .45-1 1v4c0 .55.45 1 1 1h2l-1.03 2.06c-.45.89.2 1.94 1.2 1.94z"></path>
</symbol>
<symbol id="m-notifications" viewBox="0 0 24 24"><path d="M12 22c1.1 0 2-.9 2-2h-4a2 2 0 0 0 2 2zm6-6v-5c0-3.07-1.64-5.64-4.5-6.32V4c0-.83-.67-1.5-1.5-1.5s-1.5.67-1.5 1.5v.68C7.63 5.36 6 7.92 6 11v5l-1.29 1.29c-.63.63-.19 1.71.7 1.71h13.17c.89 0 1.34-1.08.71-1.71L18 16z"></path>
</symbol>
<symbol id="m-reply" viewBox="0 0 24 24"><path d="M10 9V7.41c0-.89-1.08-1.34-1.71-.71L3.7 11.29a.996.996 0 0 0 0 1.41l4.59 4.59c.63.63 1.71.19 1.71-.7V14.9c5 0 8.5 1.6 11 5.1-1-5-4-10-11-11z"></path>
</symbol>
<symbol id="m-schedule" viewBox="0 0 24 24"><path d="M11.99 2C6.47 2 2 6.48 2 12s4.47 10 9.99 10C17.52 22 22 17.52 22 12S17.52 2 11.99 2zM12 20c-4.42 0-8-3.58-8-8s3.58-8 8-8 8 3.58 8 8-3.58 8-8 8zm-.22-13h-.06c-.4 0-.72.32-.72.72v4.72c0 .35.18.68.49.86l4.15 2.49c.34.2.78.1.98-.24a.71.71 0 0 0-.25-.99l-3.87-2.3V7.72c0-.4-.32-.72-.72-.72z"></path>
</symbol>
<symbol id="m-add" viewBox="0 0 24 24"><path d="M18 13h-5v5c0 .55-.45 1-1 1s-1-.45-1-1v-5H6c-.55 0-1-.45-1-1s.45-1 1-1h5V6c0-.55.45-1 1-1s1 .45 1 1v5h5c.55 0 1 .45 1 1s-.45 1-1 1z"></path>
</symbol>
<symbol id="m-notification_important" viewBox="0 0 24 24"><path d="M12 23c1.1 0 1.99-.89 1.99-1.99h-3.98c0 1.1.89 1.99 1.99 1.99zm8.29-4.71L19 17v-6c0-3.35-2.36-6.15-5.5-6.83V3c0-.83-.67-1.5-1.5-1.5s-1.5.67-1.5 1.5v1.17C7.36 4.85 5 7.65 5 11v6l-1.29 1.29c-.63.63-.19 1.71.7 1.71h15.17c.9 0 1.34-1.08.71-1.71zM13 16h-2v-2h2v2zm0-5c0 .55-.45 1-1 1s-1-.45-1-1V9c0-.55.45-1 1-1s1 .45 1 1v2z"></path>
</symbol>
<symbol id="m-notifications" viewBox="0 0 24 24"><path d="M12 22c1.1 0 2-.9 2-2h-4a2 2 0 0 0 2 2zm6-6v-5c0-3.07-1.64-5.64-4.5-6.32V4c0-.83-.67-1.5-1.5-1.5s-1.5.67-1.5 1.5v.68C7.63 5.36 6 7.92 6 11v5l-1.29 1.29c-.63.63-.19 1.71.7 1.71h13.17c.89 0 1.34-1.08.71-1.71L18 16z"></path>
</symbol>
<symbol id="m-brush" viewBox="0 0 24 24"><path d="M7 14c-1.66 0-3 1.34-3 3 0 1.31-1.16 2-2 2 .92 1.22 2.49 2 4 2 2.21 0 4-1.79 4-4 0-1.66-1.34-3-3-3zm13.71-9.37-1.34-1.34a.996.996 0 0 0-1.41 0L9 12.25 11.75 15l8.96-8.96a.996.996 0 0 0 0-1.41z"></path>
</symbol>
<symbol id="m-send" viewBox="0 0 24 24"><path d="m3.4 20.4 17.45-7.48a1 1 0 0 0 0-1.84L3.4 3.6a.993.993 0 0 0-1.39.91L2 9.12c0 .5.37.93.87.99L17 12 2.87 13.88c-.5.07-.87.5-.87 1l.01 4.61c0 .71.73 1.2 1.39.91z"></path>
</symbol>
<symbol id="m-pause" viewBox="0 0 24 24"><path d="M8 19c1.1 0 2-.9 2-2V7c0-1.1-.9-2-2-2s-2 .9-2 2v10c0 1.1.9 2 2 2zm6-12v10c0 1.1.9 2 2 2s2-.9 2-2V7c0-1.1-.9-2-2-2s-2 .9-2 2z"></path>
</symbol>
<symbol id="m-edit" viewBox="0 0 24 24"><path d="M3 17.46v3.04c0 .28.22.5.5.5h3.04c.13 0 .26-.05.35-.15L17.81 9.94l-3.75-3.75L3.15 17.1c-.1.1-.15.22-.15.36zM20.71 7.04a.996.996 0 0 0 0-1.41l-2.34-2.34a.996.996 0 0 0-1.41 0l-1.83 1.83 3.75 3.75 1.83-1.83z"></path>
</symbol>
<symbol id="m-play_arrow" viewBox="0 0 24 24"><path d="M8 6.82v10.36c0 .79.87 1.27 1.54.84l8.14-5.18a1 1 0 0 0 0-1.69L9.54 5.98A.998.998 0 0 0 8 6.82z"></path>
</symbol>
<symbol id="m-power" viewBox="0 0 24 24"><path d="M16.01 7 16 4c0-.55-.45-1-1-1s-1 .45-1 1v3h-4V4c0-.55-.45-1-1-1s-1 .45-1 1v3h-.01C6.9 7 6 7.9 6 8.99v4.66c0 .53.21 1.04.58 1.41L9.5 18v2c0 .55.45 1 1 1h3c.55 0 1-.45 1-1v-2l2.92-2.92c.37-.38.58-.89.58-1.42V8.99C18 7.89 17.11 7 16.01 7z"></path>
</symbol>
<symbol id="m-add_circle" viewBox="0 0 24 24"><path d="M12 2C6.48 2 2 6.48 2 12s4.48 10 10 10 10-4.48 10-10S17.52 2 12 2zm4 11h-3v3c0 .55-.45 1-1 1s-1-.45-1-1v-3H8c-.55 0-1-.45-1-1s.45-1 1-1h3V8c0-.55.45-1 1-1s1 .45 1 1v3h3c.55 0 1 .45 1 1s-.45 1-1 1z"></path>
</symbol>
<symbol id="m-add_box" viewBox="0 0 24 24"><path d="M19 3H5a2 2 0 0 0-2 2v14a2 2 0 0 0 2 2h14c1.1 0 2-.9 2-2V5c0-1.1-.9-2-2-2zm-3 10h-3v3c0 .55-.45 1-1 1s-1-.45-1-1v-3H8c-.55 0-1-.45-1-1s.45-1 1-1h3V8c0-.55.45-1 1-1s1 .45 1 1v3h3c.55 0 1 .45 1 1s-.45 1-1 1z"></path>
</symbol>
<symbol id="m-add" viewBox="0 0 24 24"><path d="M18 13h-5v5c0 .55-.45 1-1 1s-1-.45-1-1v-5H6c-.55 0-1-.45-1-1s.45-1 1-1h5V6c0-.55.45-1 1-1s1 .45 1 1v5h5c.55 0 1 .45 1 1s-.45 1-1 1z"></path>
</symbol>
<symbol id="m-power_settings_new" viewBox="0 0 24 24"><path d="M12 3c-.55 0-1 .45-1 1v8c0 .55.45 1 1 1s1-.45 1-1V4c0-.55-.45-1-1-1zm5.14 2.86a.99.99 0 0 0-.01 1.39c1.13 1.2 1.83 2.8 1.87 4.57.09 3.83-3.08 7.13-6.91 7.17A6.981 6.981 0 0 1 5 12c0-1.84.71-3.51 1.87-4.76.37-.39.37-1-.01-1.38a.993.993 0 0 0-1.43.02A8.92 8.92 0 0 0 3 11.74c-.14 4.88 3.83 9.1 8.71 9.25 5.1.16 9.29-3.93 9.29-9 0-2.37-.92-4.51-2.42-6.11-.38-.41-1.04-.42-1.44-.02z"></path>
</symbol>
<symbol id="m-extension" viewBox="0 0 24 24"><path d="M20.5 11H19V7c0-1.1-.9-2-2-2h-4V3.5a2.5 2.5 0 0 0-5 0V5H4c-1.1 0-1.99.9-1.99 2v3.8H3.5c1.49 0 2.7 1.21 2.7 2.7s-1.21 2.7-2.7 2.7H2V20c0 1.1.9 2 2 2h3.8v-1.5c0-1.49 1.21-2.7 2.7-2.7s2.7 1.21 2.7 2.7V22H17c1.1 0 2-.9 2-2v-4h1.5a2.5 2.5 0 0 0 0-5z"></path>
</symbol>
<symbol id="m-help_outline" viewBox="0 0 24 24"><path d="M12 2C6.48 2 2 6.48 2 12s4.48 10 10 10 10-4.48 10-10S17.52 2 12 2zm0 18c-4.41 0-8-3.59-8-8s3.59-8 8-8 8 3.59 8 8-3.59 8-8 8zm-1-4h2v2h-2zm1.61-9.96c-2.06-.3-3.88.97-4.43 2.79-.18.58.26 1.17.87 1.17h.2c.41 0 .74-.29.88-.67.32-.89 1.27-1.5 2.3-1.28.95.2 1.65 1.13 1.57 2.1-.1 1.34-1.62 1.63-2.45 2.88 0 .01-.01.01-.01.02-.01.02-.02.03-.03.05-.09.15-.18.32-.25.5-.01.03-.03.05-.04.08-.01.02-.01.04-.02.07-.12.34-.2.75-.2 1.25h2c0-.42.11-.77.28-1.07.02-.03.03-.06.05-.09.08-.14.18-.27.28-.39.01-.01.02-.03.03-.04.1-.12.21-.23.33-.34.96-.91 2.26-1.65 1.99-3.56-.24-1.74-1.61-3.21-3.35-3.47z"></path>
</symbol>
<symbol id="m-question_mark" viewBox="0 0 24 24"><path d="M7.92 7.54c-.8-.34-1.14-1.33-.66-2.05C8.23 4.05 9.85 3 11.99 3c2.35 0 3.96 1.07 4.78 2.41.7 1.15 1.11 3.3.03 4.9-1.2 1.77-2.35 2.31-2.97 3.45-.15.27-.24.49-.3.94-.09.73-.69 1.3-1.43 1.3-.87 0-1.58-.75-1.48-1.62.06-.51.18-1.04.46-1.54.77-1.39 2.25-2.21 3.11-3.44.91-1.29.4-3.7-2.18-3.7-1.17 0-1.93.61-2.4 1.34-.35.57-1.08.75-1.69.5zM14 20c0 1.1-.9 2-2 2s-2-.9-2-2 .9-2 2-2 2 .9 2 2z"></path>
</symbol>
<symbol id="m-format_quote" viewBox="0 0 24 24"><path d="M7.17 17c.51 0 .98-.29 1.2-.74l1.42-2.84c.14-.28.21-.58.21-.89V8c0-.55-.45-1-1-1H5c-.55 0-1 .45-1 1v4c0 .55.45 1 1 1h2l-1.03 2.06c-.45.89.2 1.94 1.2 1.94zm10 0c.51 0 .98-.29 1.2-.74l1.42-2.84c.14-.28.21-.58.21-.89V8c0-.55-.45-1-1-1h-4c-.55 0-1 .45-1 1v4c0 .55.45 1 1 1h2l-1.03 2.06c-.45.89.2 1.94 1.2 1.94z"></path>
</symbol>
<symbol id="m-shuffle" viewBox="0 0 24 24"><path d="M10.59 9.17 6.12 4.7a.996.996 0 1 0-1.41 1.41l4.46 4.46 1.42-1.4zm4.76-4.32 1.19 1.19L4.7 17.88a.996.996 0 1 0 1.41 1.41L17.96 7.46l1.19 1.19a.5.5 0 0 0 .85-.36V4.5c0-.28-.22-.5-.5-.5h-3.79a.5.5 0 0 0-.36.85zm-.52 8.56-1.41 1.41 3.13 3.13-1.2 1.2a.5.5 0 0 0 .36.85h3.79c.28 0 .5-.22.5-.5v-3.79c0-.45-.54-.67-.85-.35l-1.19 1.19-3.13-3.14z"></path>
</symbol>
<symbol id="m-redo" viewBox="0 0 24 24"><path d="M18.4 10.6C16.55 8.99 14.15 8 11.5 8c-4.16 0-7.74 2.42-9.44 5.93-.32.67.04 1.47.75 1.71.59.2 1.23-.08 1.5-.64 1.3-2.66 4.03-4.5 7.19-4.5 1.95 0 3.73.72 5.12 1.88l-1.91 1.91c-.63.63-.19 1.71.7 1.71H21c.55 0 1-.45 1-1V9.41c0-.89-1.08-1.34-1.71-.71l-1.89 1.9z"></path>
</symbol>
<symbol id="m-reply" viewBox="0 0 24 24"><path d="M10 9V7.41c0-.89-1.08-1.34-1.71-.71L3.7 11.29a.996.996 0 0 0 0 1.41l4.59 4.59c.63.63 1.71.19 1.71-.7V14.9c5 0 8.5 1.6 11 5.1-1-5-4-10-11-11z"></path>
</symbol>
<symbol id="m-rocket_launch" viewBox="0 0 24 24"><path d="M9.19 6.35c-2.04 2.29-3.44 5.58-3.57 5.89l-2.26-.97c-.65-.28-.81-1.13-.31-1.63l3.01-3.01c.47-.47 1.15-.68 1.81-.55l1.32.27zm1.49 10.16c.3.3.74.38 1.12.2 1.16-.54 3.65-1.81 5.26-3.42 4.59-4.59 4.63-8.33 4.36-9.93a.979.979 0 0 0-.79-.79c-1.6-.27-5.34-.23-9.93 4.36-1.61 1.61-2.87 4.1-3.42 5.26-.18.38-.09.83.2 1.12l3.2 3.2zm6.97-1.7c-2.29 2.04-5.58 3.44-5.89 3.57l.97 2.26c.28.65 1.13.81 1.63.31l3.01-3.01c.47-.47.68-1.15.55-1.81l-.27-1.32zm-8.71 2.6a3 3 0 0 1-.82 2.71c-.77.77-3.16 1.34-4.71 1.64-.69.13-1.3-.48-1.17-1.17.3-1.55.86-3.94 1.64-4.71a3 3 0 0 1 2.71-.82c1.17.22 2.13 1.18 2.35 2.35zM13 9c0-1.1.9-2 2-2s2 .9 2 2-.9 2-2 2-2-.9-2-2z"></path>
</symbol>
<symbol id="m-save" viewBox="0 0 24 24"><path d="M17.59 3.59c-.38-.38-.89-.59-1.42-.59H5a2 2 0 0 0-2 2v14c0 1.1.9 2 2 2h14c1.1 0 2-.9 2-2V7.83c0-.53-.21-1.04-.59-1.41l-2.82-2.83zM12 19c-1.66 0-3-1.34-3-3s1.34-3 3-3 3 1.34 3 3-1.34 3-3 3zm1-10H7c-1.1 0-2-.9-2-2s.9-2 2-2h6c1.1 0 2 .9 2 2s-.9 2-2 2z"></path>
</symbol>
<symbol id="m-search" viewBox="0 0 24 24"><path d="M15.5 14h-.79l-.28-.27a6.5 6.5 0 0 0 1.48-5.34c-.47-2.78-2.79-5-5.59-5.34a6.505 6.505 0 0 0-7.27 7.27c.34 2.8 2.56 5.12 5.34 5.59a6.5 6.5 0 0 0 5.34-1.48l.27.28v.79l4.25 4.25c.41.41 1.08.41 1.49 0 .41-.41.41-1.08 0-1.49L15.5 14zm-6 0C7.01 14 5 11.99 5 9.5S7.01 5 9.5 5 14 7.01 14 9.5 11.99 14 9.5 14z"></path>
</symbol>
<symbol id="m-share" viewBox="0 0 24 24"><path d="M18 16.08c-.76 0-1.44.3-1.96.77L8.91 12.7c.05-.23.09-.46.09-.7s-.04-.47-.09-.7l7.05-4.11c.54.5 1.25.81 2.04.81 1.66 0 3-1.34 3-3s-1.34-3-3-3-3 1.34-3 3c0 .24.04.47.09.7L8.04 9.81C7.5 9.31 6.79 9 6 9c-1.66 0-3 1.34-3 3s1.34 3 3 3c.79 0 1.5-.31 2.04-.81l7.12 4.16c-.05.21-.08.43-.08.65 0 1.61 1.31 2.92 2.92 2.92s2.92-1.31 2.92-2.92-1.31-2.92-2.92-2.92z"></path>
</symbol>
<symbol id="m-share" viewBox="0 0 24 24"><path d="M18 16.08c-.76 0-1.44.3-1.96.77L8.91 12.7c.05-.23.09-.46.09-.7s-.04-.47-.09-.7l7.05-4.11c.54.5 1.25.81 2.04.81 1.66 0 3-1.34 3-3s-1.34-3-3-3-3 1.34-3 3c0 .24.04.47.09.7L8.04 9.81C7.5 9.31 6.79 9 6 9c-1.66 0-3 1.34-3 3s1.34 3 3 3c.79 0 1.5-.31 2.04-.81l7.12 4.16c-.05.21-.08.43-.08.65 0 1.61 1.31 2.92 2.92 2.92s2.92-1.31 2.92-2.92-1.31-2.92-2.92-2.92z"></path>
</symbol>
<symbol id="m-security" viewBox="0 0 24 24"><path d="m11.19 1.36-7 3.11C3.47 4.79 3 5.51 3 6.3V11c0 5.55 3.84 10.74 9 12 5.16-1.26 9-6.45 9-12V6.3c0-.79-.47-1.51-1.19-1.83l-7-3.11c-.51-.23-1.11-.23-1.62 0zM12 11.99h7c-.53 4.12-3.28 7.79-7 8.94V12H5V6.3l7-3.11v8.8z"></path>
</symbol>
<symbol id="m-shield" viewBox="0 0 24 24"><path d="m11.3 2.26-6 2.25C4.52 4.81 4 5.55 4 6.39v4.7c0 4.83 3.13 9.37 7.43 10.75.37.12.77.12 1.14 0 4.3-1.38 7.43-5.91 7.43-10.75v-4.7a2 2 0 0 0-1.3-1.87l-6-2.25c-.45-.18-.95-.18-1.4-.01z"></path>
</symbol>
<symbol id="m-login" viewBox="0 0 24 24"><path d="M10.3 7.7a.984.984 0 0 0 0 1.4l1.9 1.9H3c-.55 0-1 .45-1 1s.45 1 1 1h9.2l-1.9 1.9a.984.984 0 0 0 0 1.4c.39.39 1.01.39 1.4 0l3.59-3.59a.996.996 0 0 0 0-1.41L11.7 7.7a.984.984 0 0 0-1.4 0zM20 19h-7c-.55 0-1 .45-1 1s.45 1 1 1h7c1.1 0 2-.9 2-2V5c0-1.1-.9-2-2-2h-7c-.55 0-1 .45-1 1s.45 1 1 1h7v14z"></path>
</symbol>
<symbol id="m-logout" viewBox="0 0 24 24"><path d="M5 5h6c.55 0 1-.45 1-1s-.45-1-1-1H5c-1.1 0-2 .9-2 2v14c0 1.1.9 2 2 2h6c.55 0 1-.45 1-1s-.45-1-1-1H5V5z"></path><path d="m20.65 11.65-2.79-2.79a.501.501 0 0 0-.86.35V11h-7c-.55 0-1 .45-1 1s.45 1 1 1h7v1.79c0 .45.54.67.85.35l2.79-2.79c.2-.19.2-.51.01-.7z"></path>
</symbol>
<symbol id="m-signal_cellular_alt" viewBox="0 0 24 24"><path d="M18.5 4c.83 0 1.5.67 1.5 1.5v13c0 .83-.67 1.5-1.5 1.5s-1.5-.67-1.5-1.5v-13c0-.83.67-1.5 1.5-1.5zm-12 10c.83 0 1.5.67 1.5 1.5v3c0 .83-.67 1.5-1.5 1.5S5 19.33 5 18.5v-3c0-.83.67-1.5 1.5-1.5zm6-5c.83 0 1.5.67 1.5 1.5v8c0 .83-.67 1.5-1.5 1.5s-1.5-.67-1.5-1.5v-8c0-.83.67-1.5 1.5-1.5z"></path>
</symbol>
<symbol id="m-tune" viewBox="0 0 24 24"><path d="M3 18c0 .55.45 1 1 1h5v-2H4c-.55 0-1 .45-1 1zM3 6c0 .55.45 1 1 1h9V5H4c-.55 0-1 .45-1 1zm10 14v-1h7c.55 0 1-.45 1-1s-.45-1-1-1h-7v-1c0-.55-.45-1-1-1s-1 .45-1 1v4c0 .55.45 1 1 1s1-.45 1-1zM7 10v1H4c-.55 0-1 .45-1 1s.45 1 1 1h3v1c0 .55.45 1 1 1s1-.45 1-1v-4c0-.55-.45-1-1-1s-1 .45-1 1zm14 2c0-.55-.45-1-1-1h-9v2h9c.55 0 1-.45 1-1zm-5-3c.55 0 1-.45 1-1V7h3c.55 0 1-.45 1-1s-.45-1-1-1h-3V4c0-.55-.45-1-1-1s-1 .45-1 1v4c0 .55.45 1 1 1z"></path>
</symbol>
<symbol id="m-tune" viewBox="0 0 24 24"><path d="M3 18c0 .55.45 1 1 1h5v-2H4c-.55 0-1 .45-1 1zM3 6c0 .55.45 1 1 1h9V5H4c-.55 0-1 .45-1 1zm10 14v-1h7c.55 0 1-.45 1-1s-.45-1-1-1h-7v-1c0-.55-.45-1-1-1s-1 .45-1 1v4c0 .55.45 1 1 1s1-.45 1-1zM7 10v1H4c-.55 0-1 .45-1 1s.45 1 1 1h3v1c0 .55.45 1 1 1s1-.45 1-1v-4c0-.55-.45-1-1-1s-1 .45-1 1zm14 2c0-.55-.45-1-1-1h-9v2h9c.55 0 1-.45 1-1zm-5-3c.55 0 1-.45 1-1V7h3c.55 0 1-.45 1-1s-.45-1-1-1h-3V4c0-.55-.45-1-1-1s-1 .45-1 1v4c0 .55.45 1 1 1z"></path>
</symbol>
<symbol id="m-mood" viewBox="0 0 24 24"><path d="M11.99 2C6.47 2 2 6.48 2 12s4.47 10 9.99 10C17.52 22 22 17.52 22 12S17.52 2 11.99 2zM12 20c-4.42 0-8-3.58-8-8s3.58-8 8-8 8 3.58 8 8-3.58 8-8 8zm3.5-9c.83 0 1.5-.67 1.5-1.5S16.33 8 15.5 8 14 8.67 14 9.5s.67 1.5 1.5 1.5zm-7 0c.83 0 1.5-.67 1.5-1.5S9.33 8 8.5 8 7 8.67 7 9.5 7.67 11 8.5 11zm3.5 6.5c2.03 0 3.8-1.11 4.75-2.75a.503.503 0 0 0-.44-.75H7.69c-.38 0-.63.42-.44.75A5.489 5.489 0 0 0 12 17.5z"></path>
</symbol>
<symbol id="m-sort" viewBox="0 0 24 24"><path d="M4 18h4c.55 0 1-.45 1-1s-.45-1-1-1H4c-.55 0-1 .45-1 1s.45 1 1 1zM3 7c0 .55.45 1 1 1h16c.55 0 1-.45 1-1s-.45-1-1-1H4c-.55 0-1 .45-1 1zm1 6h10c.55 0 1-.45 1-1s-.45-1-1-1H4c-.55 0-1 .45-1 1s.45 1 1 1z"></path>
</symbol>
<symbol id="m-pending" viewBox="0 0 24 24"><path d="M12 2C6.48 2 2 6.48 2 12s4.48 10 10 10 10-4.48 10-10S17.52 2 12 2zM7 13.5c-.83 0-1.5-.67-1.5-1.5s.67-1.5 1.5-1.5 1.5.67 1.5 1.5-.67 1.5-1.5 1.5zm5 0c-.83 0-1.5-.67-1.5-1.5s.67-1.5 1.5-1.5 1.5.67 1.5 1.5-.67 1.5-1.5 1.5zm5 0c-.83 0-1.5-.67-1.5-1.5s.67-1.5 1.5-1.5 1.5.67 1.5 1.5-.67 1.5-1.5 1.5z"></path>
</symbol>
<symbol id="m-square" viewBox="0 0 24 24"><path d="M3 5v14c0 1.1.9 2 2 2h14c1.1 0 2-.9 2-2V5c0-1.1-.9-2-2-2H5c-1.1 0-2 .9-2 2z"></path>
</symbol>
<symbol id="m-approval" viewBox="0 0 24 24"><path d="M4 16v4c0 1.1.9 2 2 2h12c1.1 0 2-.9 2-2v-4c0-1.1-.9-2-2-2H6c-1.1 0-2 .9-2 2zm13 2H7c-.55 0-1-.45-1-1s.45-1 1-1h10c.55 0 1 .45 1 1s-.45 1-1 1zM12 2C9.54 2 7.48 3.79 7.07 6.13c-.08.52.06 1.05.36 1.47l3.76 5.26a1 1 0 0 0 1.63 0l3.76-5.26c.3-.42.44-.95.35-1.47A5.016 5.016 0 0 0 12 2z"></path>
</symbol>
<symbol id="m-star" viewBox="0 0 24 24"><path d="m12 17.27 4.15 2.51c.76.46 1.69-.22 1.49-1.08l-1.1-4.72 3.67-3.18c.67-.58.31-1.68-.57-1.75l-4.83-.41-1.89-4.46c-.34-.81-1.5-.81-1.84 0L9.19 8.63l-4.83.41c-.88.07-1.24 1.17-.57 1.75l3.67 3.18-1.1 4.72c-.2.86.73 1.54 1.49 1.08l4.15-2.5z"></path>
</symbol>
<symbol id="m-skip_previous" viewBox="0 0 24 24"><path d="M7 6c.55 0 1 .45 1 1v10c0 .55-.45 1-1 1s-1-.45-1-1V7c0-.55.45-1 1-1zm3.66 6.82 5.77 4.07c.66.47 1.58-.01 1.58-.82V7.93c0-.81-.91-1.28-1.58-.82l-5.77 4.07a1 1 0 0 0 0 1.64z"></path>
</symbol>
<symbol id="m-skip_next" viewBox="0 0 24 24"><path d="m7.58 16.89 5.77-4.07c.56-.4.56-1.24 0-1.63L7.58 7.11C6.91 6.65 6 7.12 6 7.93v8.14c0 .81.91 1.28 1.58.82zM16 7v10c0 .55.45 1 1 1s1-.45 1-1V7c0-.55-.45-1-1-1s-1 .45-1 1z"></path>
</symbol>
<symbol id="m-clear_all" viewBox="0 0 24 24"><path d="M6 13h12c.55 0 1-.45 1-1s-.45-1-1-1H6c-.55 0-1 .45-1 1s.45 1 1 1zm-2 4h12c.55 0 1-.45 1-1s-.45-1-1-1H4c-.55 0-1 .45-1 1s.45 1 1 1zm3-9c0 .55.45 1 1 1h12c.55 0 1-.45 1-1s-.45-1-1-1H8c-.55 0-1 .45-1 1z"></path>
</symbol>
<symbol id="m-light_mode" viewBox="0 0 24 24"><path d="M12 7c-2.76 0-5 2.24-5 5s2.24 5 5 5 5-2.24 5-5-2.24-5-5-5zM2 13h2c.55 0 1-.45 1-1s-.45-1-1-1H2c-.55 0-1 .45-1 1s.45 1 1 1zm18 0h2c.55 0 1-.45 1-1s-.45-1-1-1h-2c-.55 0-1 .45-1 1s.45 1 1 1zM11 2v2c0 .55.45 1 1 1s1-.45 1-1V2c0-.55-.45-1-1-1s-1 .45-1 1zm0 18v2c0 .55.45 1 1 1s1-.45 1-1v-2c0-.55-.45-1-1-1s-1 .45-1 1zM5.99 4.58a.996.996 0 0 0-1.41 0 .996.996 0 0 0 0 1.41l1.06 1.06c.39.39 1.03.39 1.41 0s.39-1.03 0-1.41L5.99 4.58zm12.37 12.37a.996.996 0 0 0-1.41 0 .996.996 0 0 0 0 1.41l1.06 1.06c.39.39 1.03.39 1.41 0a.996.996 0 0 0 0-1.41l-1.06-1.06zm1.06-10.96a.996.996 0 0 0 0-1.41.996.996 0 0 0-1.41 0l-1.06 1.06c-.39.39-.39 1.03 0 1.41s1.03.39 1.41 0l1.06-1.06zM7.05 18.36a.996.996 0 0 0 0-1.41.996.996 0 0 0-1.41 0l-1.06 1.06c-.39.39-.39 1.03 0 1.41s1.03.39 1.41 0l1.06-1.06z"></path>
</symbol>
<symbol id="m-sync" viewBox="0 0 24 24"><path d="M12 4V2.21c0-.45-.54-.67-.85-.35l-2.8 2.79c-.2.2-.2.51 0 .71l2.79 2.79c.32.31.86.09.86-.36V6c3.31 0 6 2.69 6 6 0 .79-.15 1.56-.44 2.25-.15.36-.04.77.23 1.04.51.51 1.37.33 1.64-.34.37-.91.57-1.91.57-2.95 0-4.42-3.58-8-8-8zm0 14c-3.31 0-6-2.69-6-6 0-.79.15-1.56.44-2.25.15-.36.04-.77-.23-1.04-.51-.51-1.37-.33-1.64.34C4.2 9.96 4 10.96 4 12c0 4.42 3.58 8 8 8v1.79c0 .45.54.67.85.35l2.79-2.79c.2-.2.2-.51 0-.71l-2.79-2.79a.5.5 0 0 0-.85.36V18z"></path>
</symbol>
<symbol id="m-sync" viewBox="0 0 24 24"><path d="M12 4V2.21c0-.45-.54-.67-.85-.35l-2.8 2.79c-.2.2-.2.51 0 .71l2.79 2.79c.32.31.86.09.86-.36V6c3.31 0 6 2.69 6 6 0 .79-.15 1.56-.44 2.25-.15.36-.04.77.23 1.04.51.51 1.37.33 1.64-.34.37-.91.57-1.91.57-2.95 0-4.42-3.58-8-8-8zm0 14c-3.31 0-6-2.69-6-6 0-.79.15-1.56.44-2.25.15-.36.04-.77-.23-1.04-.51-.51-1.37-.33-1.64.34C4.2 9.96 4 10.96 4 12c0 4.42 3.58 8 8 8v1.79c0 .45.54.67.85.35l2.79-2.79c.2-.2.2-.51 0-.71l-2.79-2.79a.5.5 0 0 0-.85.36V18z"></path>
</symbol>
<symbol id="m-table_chart" viewBox="0 0 24 24"><path d="M10 10.02h5V21h-5V10.02zM17 21h3c1.1 0 2-.9 2-2v-9h-5v11zm3-18H5c-1.1 0-2 .9-2 2v3h19V5c0-1.1-.9-2-2-2zM3 19c0 1.1.9 2 2 2h3V10H3v9z"></path>
</symbol>
<symbol id="m-sell" viewBox="0 0 24 24"><path d="m21.41 11.41-8.83-8.83c-.37-.37-.88-.58-1.41-.58H4c-1.1 0-2 .9-2 2v7.17c0 .53.21 1.04.59 1.41l8.83 8.83c.78.78 2.05.78 2.83 0l7.17-7.17c.78-.78.78-2.04-.01-2.83zM6.5 8C5.67 8 5 7.33 5 6.5S5.67 5 6.5 5 8 5.67 8 6.5 7.33 8 6.5 8z"></path>
</symbol>
<symbol id="m-sell" viewBox="0 0 24 24"><path d="m21.41 11.41-8.83-8.83c-.37-.37-.88-.58-1.41-.58H4c-1.1 0-2 .9-2 2v7.17c0 .53.21 1.04.59 1.41l8.83 8.83c.78.78 2.05.78 2.83 0l7.17-7.17c.78-.78.78-2.04-.01-2.83zM6.5 8C5.67 8 5 7.33 5 6.5S5.67 5 6.5 5 8 5.67 8 6.5 7.33 8 6.5 8z"></path>
</symbol>
<symbol id="m-checklist" viewBox="0 0 24 24"><path d="M22 8c0-.55-.45-1-1-1h-7c-.55 0-1 .45-1 1s.45 1 1 1h7c.55 0 1-.45 1-1zm-9 8c0 .55.45 1 1 1h7c.55 0 1-.45 1-1s-.45-1-1-1h-7c-.55 0-1 .45-1 1zM10.47 4.63c.39.39.39 1.02 0 1.41l-4.23 4.25c-.39.39-1.02.39-1.42 0L2.7 8.16a.996.996 0 1 1 1.41-1.41l1.42 1.42 3.54-3.54c.38-.38 1.02-.38 1.4 0zm.01 8.01c.39.39.39 1.02 0 1.41L6.25 18.3c-.39.39-1.02.39-1.42 0L2.7 16.16a.996.996 0 1 1 1.41-1.41l1.42 1.42 3.54-3.54c.38-.38 1.02-.38 1.41.01z"></path>
</symbol>
<symbol id="m-device_thermostat" viewBox="0 0 24 24"><path d="M15 13V5c0-1.66-1.34-3-3-3S9 3.34 9 5v8c-1.21.91-2 2.37-2 4 0 2.76 2.24 5 5 5s5-2.24 5-5c0-1.63-.79-3.09-2-4zm-4-2V5c0-.55.45-1 1-1s1 .45 1 1v1h-1v1h1v2h-1v1h1v1h-2z"></path>
</symbol>
<symbol id="m-thumb_down" viewBox="0 0 24 24"><path d="m10.88 21.94 5.53-5.54c.37-.37.58-.88.58-1.41V5c0-1.1-.9-2-2-2H6c-.8 0-1.52.48-1.83 1.21L.91 11.82C.06 13.8 1.51 16 3.66 16h5.65l-.95 4.58c-.1.5.05 1.01.41 1.37.59.58 1.53.58 2.11-.01zM21 3c-1.1 0-2 .9-2 2v8c0 1.1.9 2 2 2s2-.9 2-2V5c0-1.1-.9-2-2-2z"></path>
</symbol>
<symbol id="m-thumb_up" viewBox="0 0 24 24"><path d="M13.12 2.06 7.58 7.6c-.37.37-.58.88-.58 1.41V19c0 1.1.9 2 2 2h9c.8 0 1.52-.48 1.84-1.21l3.26-7.61C23.94 10.2 22.49 8 20.34 8h-5.65l.95-4.58c.1-.5-.05-1.01-.41-1.37-.59-.58-1.53-.58-2.11.01zM3 21c1.1 0 2-.9 2-2v-8c0-1.1-.9-2-2-2s-2 .9-2 2v8c0 1.1.9 2 2 2z"></path>
</symbol>
<symbol id="m-push_pin" viewBox="0 0 24 24"><path fill-rule="evenodd" d="M19 12.87c0-.47-.34-.85-.8-.98A2.997 2.997 0 0 1 16 9V4h1c.55 0 1-.45 1-1s-.45-1-1-1H7c-.55 0-1 .45-1 1s.45 1 1 1h1v5c0 1.38-.93 2.54-2.2 2.89-.46.13-.8.51-.8.98V13c0 .55.45 1 1 1h4.98l.02 7c0 .55.45 1 1 1s1-.45 1-1l-.02-7H18c.55 0 1-.45 1-1v-.13z"></path>
</symbol>
<symbol id="m-highlight_off" viewBox="0 0 24 24"><path d="M13.89 8.7 12 10.59 10.11 8.7a.996.996 0 1 0-1.41 1.41L10.59 12 8.7 13.89a.996.996 0 1 0 1.41 1.41L12 13.41l1.89 1.89a.996.996 0 1 0 1.41-1.41L13.41 12l1.89-1.89a.996.996 0 0 0 0-1.41c-.39-.38-1.03-.38-1.41 0zM12 2C6.47 2 2 6.47 2 12s4.47 10 10 10 10-4.47 10-10S17.53 2 12 2zm0 18c-4.41 0-8-3.59-8-8s3.59-8 8-8 8 3.59 8 8-3.59 8-8 8z"></path>
</symbol>
<symbol id="m-close" viewBox="0 0 24 24"><path d="M18.3 5.71a.996.996 0 0 0-1.41 0L12 10.59 7.11 5.7A.996.996 0 1 0 5.7 7.11L10.59 12 5.7 16.89a.996.996 0 1 0 1.41 1.41L12 13.41l4.89 4.89a.996.996 0 1 0 1.41-1.41L13.41 12l4.89-4.89c.38-.38.38-1.02 0-1.4z"></path>
</symbol>
<symbol id="m-toggle_off" viewBox="0 0 24 24"><path d="M17 7H7c-2.76 0-5 2.24-5 5s2.24 5 5 5h10c2.76 0 5-2.24 5-5s-2.24-5-5-5zM7 15c-1.66 0-3-1.34-3-3s1.34-3 3-3 3 1.34 3 3-1.34 3-3 3z"></path>
</symbol>
<symbol id="m-toggle_on" viewBox="0 0 24 24"><path d="M17 7H7c-2.76 0-5 2.24-5 5s2.24 5 5 5h10c2.76 0 5-2.24 5-5s-2.24-5-5-5zm0 8c-1.66 0-3-1.34-3-3s1.34-3 3-3 3 1.34 3 3-1.34 3-3 3z"></path>
</symbol>
<symbol id="m-delete" viewBox="0 0 24 24"><path d="M6 19c0 1.1.9 2 2 2h8c1.1 0 2-.9 2-2V9c0-1.1-.9-2-2-2H8c-1.1 0-2 .9-2 2v10zM18 4h-2.5l-.71-.71c-.18-.18-.44-.29-.7-.29H9.91c-.26 0-.52.11-.7.29L8.5 4H6c-.55 0-1 .45-1 1s.45 1 1 1h12c.55 0 1-.45 1-1s-.45-1-1-1z"></path>
</symbol>
<symbol id="m-undo" viewBox="0 0 24 24"><path d="M12.5 8c-2.65 0-5.05.99-6.9 2.6L3.71 8.71C3.08 8.08 2 8.52 2 9.41V15c0 .55.45 1 1 1h5.59c.89 0 1.34-1.08.71-1.71l-1.91-1.91c1.39-1.16 3.16-1.88 5.12-1.88 3.16 0 5.89 1.84 7.19 4.5.27.56.91.84 1.5.64.71-.23 1.07-1.04.75-1.72C20.23 10.42 16.65 8 12.5 8z"></path>
</symbol>
<symbol id="m-link_off" viewBox="0 0 24 24"><path d="M14 9h2.87c1.46 0 2.8.98 3.08 2.42.31 1.64-.74 3.11-2.22 3.48l1.53 1.53c1.77-.91 2.95-2.82 2.7-5.01C21.68 8.86 19.37 7 16.79 7H14c-.55 0-1 .45-1 1s.45 1 1 1zM3.51 3.51A.996.996 0 1 0 2.1 4.92l2.64 2.64c-1.77.91-2.95 2.82-2.7 5.01C2.32 15.14 4.63 17 7.21 17H10c.55 0 1-.45 1-1s-.45-1-1-1H7.13c-1.46 0-2.8-.98-3.08-2.42-.31-1.64.75-3.11 2.22-3.48l2.12 2.12c-.23.19-.39.46-.39.78 0 .55.45 1 1 1h1.17l8.9 8.9a.996.996 0 1 0 1.41-1.41L3.51 3.51zM14 11l1.71 1.71A1.003 1.003 0 0 0 15 11h-1z"></path>
</symbol>
<symbol id="m-lock_open" viewBox="0 0 24 24"><path d="M12 13c-1.1 0-2 .9-2 2s.9 2 2 2 2-.9 2-2-.9-2-2-2zm6-5h-1V6c0-2.76-2.24-5-5-5-2.28 0-4.27 1.54-4.84 3.75-.14.54.18 1.08.72 1.22a1 1 0 0 0 1.22-.72A2.996 2.996 0 0 1 12 3c1.65 0 3 1.35 3 3v2H6c-1.1 0-2 .9-2 2v10c0 1.1.9 2 2 2h12c1.1 0 2-.9 2-2V10c0-1.1-.9-2-2-2zm0 11c0 .55-.45 1-1 1H7c-.55 0-1-.45-1-1v-8c0-.55.45-1 1-1h10c.55 0 1 .45 1 1v8z"></path>
</symbol>
<symbol id="m-lock_open" viewBox="0 0 24 24"><path d="M12 13c-1.1 0-2 .9-2 2s.9 2 2 2 2-.9 2-2-.9-2-2-2zm6-5h-1V6c0-2.76-2.24-5-5-5-2.28 0-4.27 1.54-4.84 3.75-.14.54.18 1.08.72 1.22a1 1 0 0 0 1.22-.72A2.996 2.996 0 0 1 12 3c1.65 0 3 1.35 3 3v2H6c-1.1 0-2 .9-2 2v10c0 1.1.9 2 2 2h12c1.1 0 2-.9 2-2V10c0-1.1-.9-2-2-2zm0 11c0 .55-.45 1-1 1H7c-.55 0-1-.45-1-1v-8c0-.55.45-1 1-1h10c.55 0 1 .45 1 1v8z"></path>
</symbol>
<symbol id="m-file_upload" viewBox="0 0 24 24"><path d="M7.4 10h1.59v5c0 .55.45 1 1 1h4c.55 0 1-.45 1-1v-5h1.59c.89 0 1.34-1.08.71-1.71L12.7 3.7a.996.996 0 0 0-1.41 0L6.7 8.29c-.63.63-.19 1.71.7 1.71zM5 19c0 .55.45 1 1 1h12c.55 0 1-.45 1-1s-.45-1-1-1H6c-.55 0-1 .45-1 1z"></path>
</symbol>
<symbol id="m-manage_accounts" viewBox="0 0 24 24"><path d="M10.67 13.02c-.22-.01-.44-.02-.67-.02-2.42 0-4.68.67-6.61 1.82-.88.52-1.39 1.5-1.39 2.53V19c0 .55.45 1 1 1h8.26a6.963 6.963 0 0 1-.59-6.98z"></path><circle cx="10" cy="8" r="4"></circle><path d="M20.75 16c0-.22-.03-.42-.06-.63l.84-.73c.18-.16.22-.42.1-.63l-.59-1.02a.488.488 0 0 0-.59-.22l-1.06.36c-.32-.27-.68-.48-1.08-.63l-.22-1.09a.503.503 0 0 0-.49-.4h-1.18c-.24 0-.44.17-.49.4l-.22 1.09c-.4.15-.76.36-1.08.63l-1.06-.36a.496.496 0 0 0-.59.22l-.59 1.02c-.12.21-.08.47.1.63l.84.73c-.03.21-.06.41-.06.63s.03.42.06.63l-.84.73c-.18.16-.22.42-.1.63l.59 1.02c.12.21.37.3.59.22l1.06-.36c.32.27.68.48 1.08.63l.22 1.09c.05.23.25.4.49.4h1.18c.24 0 .44-.17.49-.4l.22-1.09c.4-.15.76-.36 1.08-.63l1.06.36c.23.08.47-.02.59-.22l.59-1.02c.12-.21.08-.47-.1-.63l-.84-.73c.03-.21.06-.41.06-.63zM17 18c-1.1 0-2-.9-2-2s.9-2 2-2 2 .9 2 2-.9 2-2 2z"></path>
</symbol>
<symbol id="m-manage_accounts" viewBox="0 0 24 24"><path d="M10.67 13.02c-.22-.01-.44-.02-.67-.02-2.42 0-4.68.67-6.61 1.82-.88.52-1.39 1.5-1.39 2.53V19c0 .55.45 1 1 1h8.26a6.963 6.963 0 0 1-.59-6.98z"></path><circle cx="10" cy="8" r="4"></circle><path d="M20.75 16c0-.22-.03-.42-.06-.63l.84-.73c.18-.16.22-.42.1-.63l-.59-1.02a.488.488 0 0 0-.59-.22l-1.06.36c-.32-.27-.68-.48-1.08-.63l-.22-1.09a.503.503 0 0 0-.49-.4h-1.18c-.24 0-.44.17-.49.4l-.22 1.09c-.4.15-.76.36-1.08.63l-1.06-.36a.496.496 0 0 0-.59.22l-.59 1.02c-.12.21-.08.47.1.63l.84.73c-.03.21-.06.41-.06.63s.03.42.06.63l-.84.73c-.18.16-.22.42-.1.63l.59 1.02c.12.21.37.3.59.22l1.06-.36c.32.27.68.48 1.08.63l.22 1.09c.05.23.25.4.49.4h1.18c.24 0 .44-.17.49-.4l.22-1.09c.4-.15.76-.36 1.08-.63l1.06.36c.23.08.47-.02.59-.22l.59-1.02c.12-.21.08-.47-.1-.63l-.84-.73c.03-.21.06-.41.06-.63zM17 18c-1.1 0-2-.9-2-2s.9-2 2-2 2 .9 2 2-.9 2-2 2z"></path>
</symbol>
<symbol id="m-people" viewBox="0 0 24 24"><path d="M16 11c1.66 0 2.99-1.34 2.99-3S17.66 5 16 5s-3 1.34-3 3 1.34 3 3 3zm-8 0c1.66 0 2.99-1.34 2.99-3S9.66 5 8 5 5 6.34 5 8s1.34 3 3 3zm0 2c-2.33 0-7 1.17-7 3.5V18c0 .55.45 1 1 1h12c.55 0 1-.45 1-1v-1.5c0-2.33-4.67-3.5-7-3.5zm8 0c-.29 0-.62.02-.97.05.02.01.03.03.04.04 1.14.83 1.93 1.94 1.93 3.41V18c0 .35-.07.69-.18 1H22c.55 0 1-.45 1-1v-1.5c0-2.33-4.67-3.5-7-3.5z"></path>
</symbol>
<symbol id="m-person_add" viewBox="0 0 24 24"><path d="M15 12c2.21 0 4-1.79 4-4s-1.79-4-4-4-4 1.79-4 4 1.79 4 4 4zm-9-2V8c0-.55-.45-1-1-1s-1 .45-1 1v2H2c-.55 0-1 .45-1 1s.45 1 1 1h2v2c0 .55.45 1 1 1s1-.45 1-1v-2h2c.55 0 1-.45 1-1s-.45-1-1-1H6zm9 4c-2.67 0-8 1.34-8 4v1c0 .55.45 1 1 1h14c.55 0 1-.45 1-1v-1c0-2.66-5.33-4-8-4z"></path>
</symbol>
<symbol id="m-person_off" viewBox="0 0 24 24"><path d="M8.65 5.82a3.999 3.999 0 1 1 5.53 5.53L8.65 5.82zM20 17.17c-.02-1.1-.63-2.11-1.61-2.62-.54-.28-1.13-.54-1.77-.76L20 17.17zm.49 3.32L3.51 3.51A.996.996 0 1 0 2.1 4.92l8.18 8.18c-1.82.23-3.41.8-4.7 1.46C4.6 15.08 4 16.11 4 17.22V20h13.17l1.9 1.9c.39.39 1.02.39 1.41 0 .4-.39.4-1.02.01-1.41z"></path>
</symbol>
<symbol id="m-admin_panel_settings" viewBox="0 0 24 24"><path d="M17 11c.34 0 .67.04 1 .09V7.58c0-.8-.47-1.52-1.2-1.83l-5.5-2.4c-.51-.22-1.09-.22-1.6 0l-5.5 2.4C3.47 6.07 3 6.79 3 7.58v3.6c0 4.54 3.2 8.79 7.5 9.82.55-.13 1.08-.32 1.6-.55-.69-.98-1.1-2.17-1.1-3.45 0-3.31 2.69-6 6-6z"></path><path d="M17 13c-2.21 0-4 1.79-4 4s1.79 4 4 4 4-1.79 4-4-1.79-4-4-4zm0 1.38c.62 0 1.12.51 1.12 1.12s-.51 1.12-1.12 1.12-1.12-.51-1.12-1.12.5-1.12 1.12-1.12zm0 5.37c-.93 0-1.74-.46-2.24-1.17.05-.72 1.51-1.08 2.24-1.08s2.19.36 2.24 1.08c-.5.71-1.31 1.17-2.24 1.17z"></path>
</symbol>
<symbol id="m-person_remove" viewBox="0 0 24 24"><path d="M14 8c0-2.21-1.79-4-4-4S6 5.79 6 8s1.79 4 4 4 4-1.79 4-4zM2 18v1c0 .55.45 1 1 1h14c.55 0 1-.45 1-1v-1c0-2.66-5.33-4-8-4s-8 1.34-8 4zm16-8h4c.55 0 1 .45 1 1s-.45 1-1 1h-4c-.55 0-1-.45-1-1s.45-1 1-1z"></path>
</symbol>
<symbol id="m-person" viewBox="0 0 24 24"><path d="M12 12c2.21 0 4-1.79 4-4s-1.79-4-4-4-4 1.79-4 4 1.79 4 4 4zm0 2c-2.67 0-8 1.34-8 4v1c0 .55.45 1 1 1h14c.55 0 1-.45 1-1v-1c0-2.66-5.33-4-8-4z"></path>
</symbol>
<symbol id="m-group" viewBox="0 0 24 24"><path d="M16 11c1.66 0 2.99-1.34 2.99-3S17.66 5 16 5s-3 1.34-3 3 1.34 3 3 3zm-8 0c1.66 0 2.99-1.34 2.99-3S9.66 5 8 5 5 6.34 5 8s1.34 3 3 3zm0 2c-2.33 0-7 1.17-7 3.5V18c0 .55.45 1 1 1h12c.55 0 1-.45 1-1v-1.5c0-2.33-4.67-3.5-7-3.5zm8 0c-.29 0-.62.02-.97.05.02.01.03.03.04.04 1.14.83 1.93 1.94 1.93 3.41V18c0 .35-.07.69-.18 1H22c.55 0 1-.45 1-1v-1.5c0-2.33-4.67-3.5-7-3.5z"></path>
</symbol>
<symbol id="m-build" viewBox="0 0 24 24"><path d="M12.09 2.91C10.08.9 7.07.49 4.65 1.67L8.28 5.3c.39.39.39 1.02 0 1.41L6.69 8.3c-.39.4-1.02.4-1.41 0L1.65 4.67C.48 7.1.89 10.09 2.9 12.1a6.507 6.507 0 0 0 6.89 1.48l7.96 7.96a2.613 2.613 0 0 0 3.71 0 2.613 2.613 0 0 0 0-3.71L13.54 9.9c.92-2.34.44-5.1-1.45-6.99z"></path>
</symbol>
</svg>